<svg xmlns="http://www.w3.org/2000/svg" xmlns:xlink="http://www.w3.org/1999/xlink" xmlns:lucid="lucid" width="1760" height="1360"><g transform="translate(0 0)" lucid:page-tab-id="0_0"><path d="M621.44 509.5h496.44v283H621.44z" stroke="#333" fill="#83e0e1"/><path d="M621.44 547.1h496.44M621.44 616h496.44" stroke="#333" fill="none"/><use xlink:href="#a" transform="matrix(1,0,0,1,629.4383561643835,517.5046436857817) translate(181.175 14.6)"/><use xlink:href="#b" transform="matrix(1,0,0,1,633.4383561643835,555.1046436857818) translate(76.67500000000001 30.1)"/><use xlink:href="#c" transform="matrix(1,0,0,1,633.4383561643835,555.1046436857818) translate(182.57500000000002 30.1)"/><use xlink:href="#d" transform="matrix(1,0,0,1,633.4383561643835,555.1046436857818) translate(207.57500000000002 30.1)"/><use xlink:href="#e" transform="matrix(1,0,0,1,633.4383561643835,555.1046436857818) translate(291.57500000000005 30.1)"/><use xlink:href="#f" transform="matrix(1,0,0,1,633.4383561643835,555.1046436857818) translate(302.525 30.1)"/><use xlink:href="#g" transform="matrix(1,0,0,1,633.4383561643835,555.1046436857818) translate(327.525 30.1)"/><use xlink:href="#h" transform="matrix(1,0,0,1,633.4383561643835,555.1046436857818) translate(338.475 30.1)"/><use xlink:href="#i" transform="matrix(1,0,0,1,633.4383561643835,555.1046436857818) translate(390.375 30.1)"/><use xlink:href="#j" transform="matrix(1,0,0,1,633.4383561643835,624.0123828038838) translate(15.825000000000017 30.1)"/><use xlink:href="#k" transform="matrix(1,0,0,1,633.4383561643835,624.0123828038838) translate(58.77500000000002 30.1)"/><use xlink:href="#l" transform="matrix(1,0,0,1,633.4383561643835,624.0123828038838) translate(83.77500000000002 30.1)"/><use xlink:href="#c" transform="matrix(1,0,0,1,633.4383561643835,624.0123828038838) translate(148.62500000000003 30.1)"/><use xlink:href="#d" transform="matrix(1,0,0,1,633.4383561643835,624.0123828038838) translate(173.62500000000003 30.1)"/><use xlink:href="#e" transform="matrix(1,0,0,1,633.4383561643835,624.0123828038838) translate(257.625 30.1)"/><use xlink:href="#m" transform="matrix(1,0,0,1,633.4383561643835,624.0123828038838) translate(268.57500000000005 30.1)"/><use xlink:href="#g" transform="matrix(1,0,0,1,633.4383561643835,624.0123828038838) translate(388.375 30.1)"/><use xlink:href="#h" transform="matrix(1,0,0,1,633.4383561643835,624.0123828038838) translate(399.32500000000005 30.1)"/><use xlink:href="#n" transform="matrix(1,0,0,1,633.4383561643835,624.0123828038838) translate(451.225 30.1)"/><use xlink:href="#o" transform="matrix(1,0,0,1,633.4383561643835,624.0123828038838) translate(142.625 51.7)"/><use xlink:href="#e" transform="matrix(1,0,0,1,633.4383561643835,624.0123828038838) translate(203.625 51.7)"/><use xlink:href="#p" transform="matrix(1,0,0,1,633.4383561643835,624.0123828038838) translate(214.575 51.7)"/><use xlink:href="#g" transform="matrix(1,0,0,1,633.4383561643835,624.0123828038838) translate(261.575 51.7)"/><use xlink:href="#h" transform="matrix(1,0,0,1,633.4383561643835,624.0123828038838) translate(272.525 51.7)"/><use xlink:href="#n" transform="matrix(1,0,0,1,633.4383561643835,624.0123828038838) translate(324.425 51.7)"/><use xlink:href="#q" transform="matrix(1,0,0,1,633.4383561643835,624.0123828038838) translate(147.725 73.30000000000001)"/><use xlink:href="#e" transform="matrix(1,0,0,1,633.4383561643835,624.0123828038838) translate(209.625 73.30000000000001)"/><use xlink:href="#r" transform="matrix(1,0,0,1,633.4383561643835,624.0123828038838) translate(220.575 73.30000000000001)"/><use xlink:href="#g" transform="matrix(1,0,0,1,633.4383561643835,624.0123828038838) translate(256.475 73.30000000000001)"/><use xlink:href="#h" transform="matrix(1,0,0,1,633.4383561643835,624.0123828038838) translate(267.425 73.30000000000001)"/><use xlink:href="#s" transform="matrix(1,0,0,1,633.4383561643835,624.0123828038838) translate(319.32500000000005 73.30000000000001)"/><use xlink:href="#t" transform="matrix(1,0,0,1,633.4383561643835,624.0123828038838) translate(87.80000000000001 94.90000000000002)"/><use xlink:href="#e" transform="matrix(1,0,0,1,633.4383561643835,624.0123828038838) translate(197.60000000000002 94.90000000000002)"/><use xlink:href="#u" transform="matrix(1,0,0,1,633.4383561643835,624.0123828038838) translate(208.55 94.90000000000002)"/><use xlink:href="#g" transform="matrix(1,0,0,1,633.4383561643835,624.0123828038838) translate(307.35 94.90000000000002)"/><use xlink:href="#v" transform="matrix(1,0,0,1,633.4383561643835,624.0123828038838) translate(318.3 94.90000000000002)"/><use xlink:href="#n" transform="matrix(1,0,0,1,633.4383561643835,624.0123828038838) translate(379.25 94.90000000000002)"/><use xlink:href="#w" transform="matrix(1,0,0,1,633.4383561643835,624.0123828038838) translate(126.70000000000002 116.50000000000001)"/><use xlink:href="#e" transform="matrix(1,0,0,1,633.4383561643835,624.0123828038838) translate(179.60000000000002 116.50000000000001)"/><use xlink:href="#x" transform="matrix(1,0,0,1,633.4383561643835,624.0123828038838) translate(190.55 116.50000000000001)"/><use xlink:href="#g" transform="matrix(1,0,0,1,633.4383561643835,624.0123828038838) translate(268.45000000000005 116.50000000000001)"/><use xlink:href="#v" transform="matrix(1,0,0,1,633.4383561643835,624.0123828038838) translate(279.4 116.50000000000001)"/><use xlink:href="#n" transform="matrix(1,0,0,1,633.4383561643835,624.0123828038838) translate(340.35 116.50000000000001)"/><use xlink:href="#y" transform="matrix(1,0,0,1,633.4383561643835,624.0123828038838) translate(38.30000000000001 138.1)"/><use xlink:href="#k" transform="matrix(1,0,0,1,633.4383561643835,624.0123828038838) translate(89.25000000000001 138.1)"/><use xlink:href="#l" transform="matrix(1,0,0,1,633.4383561643835,624.0123828038838) translate(114.25000000000001 138.1)"/><use xlink:href="#z" transform="matrix(1,0,0,1,633.4383561643835,624.0123828038838) translate(179.10000000000002 138.1)"/><use xlink:href="#A" transform="matrix(1,0,0,1,633.4383561643835,624.0123828038838) translate(204.10000000000002 138.1)"/><use xlink:href="#e" transform="matrix(1,0,0,1,633.4383561643835,624.0123828038838) translate(237.05 138.1)"/><use xlink:href="#B" transform="matrix(1,0,0,1,633.4383561643835,624.0123828038838) translate(248 138.1)"/><use xlink:href="#g" transform="matrix(1,0,0,1,633.4383561643835,624.0123828038838) translate(365.90000000000003 138.1)"/><use xlink:href="#h" transform="matrix(1,0,0,1,633.4383561643835,624.0123828038838) translate(376.85 138.1)"/><use xlink:href="#i" transform="matrix(1,0,0,1,633.4383561643835,624.0123828038838) translate(428.75 138.1)"/><path d="M1200.62 497.94H1635v305h-434.38z" stroke="#333" fill="#83e0e1"/><path d="M1200.62 535.54H1635m-434.38 133.9H1635" stroke="#333" fill="none"/><g><use xlink:href="#C" transform="matrix(1,0,0,1,1208.6164383561645,505.93915210415093) translate(151.125 14.6)"/></g><g><use xlink:href="#b" transform="matrix(1,0,0,1,1212.6164383561645,543.539152104151) translate(13.25 62.6)"/><use xlink:href="#D" transform="matrix(1,0,0,1,1212.6164383561645,543.539152104151) translate(119.15 62.6)"/><use xlink:href="#E" transform="matrix(1,0,0,1,1212.6164383561645,543.539152104151) translate(144.15 62.6)"/><use xlink:href="#e" transform="matrix(1,0,0,1,1212.6164383561645,543.539152104151) translate(288.95000000000005 62.6)"/><use xlink:href="#F" transform="matrix(1,0,0,1,1212.6164383561645,543.539152104151) translate(299.90000000000003 62.6)"/><use xlink:href="#g" transform="matrix(1,0,0,1,1212.6164383561645,543.539152104151) translate(319.90000000000003 62.6)"/><use xlink:href="#v" transform="matrix(1,0,0,1,1212.6164383561645,543.539152104151) translate(330.85 62.6)"/><use xlink:href="#i" transform="matrix(1,0,0,1,1212.6164383561645,543.539152104151) translate(391.8 62.6)"/></g><g><use xlink:href="#G" transform="matrix(1,0,0,1,1212.6164383561645,677.446891222253) translate(67.80000000000001 62.6)"/><use xlink:href="#D" transform="matrix(1,0,0,1,1212.6164383561645,677.446891222253) translate(120.70000000000002 62.6)"/><use xlink:href="#H" transform="matrix(1,0,0,1,1212.6164383561645,677.446891222253) translate(145.70000000000002 62.6)"/><use xlink:href="#e" transform="matrix(1,0,0,1,1212.6164383561645,677.446891222253) translate(210.55 62.6)"/><use xlink:href="#I" transform="matrix(1,0,0,1,1212.6164383561645,677.446891222253) translate(221.5 62.6)"/><use xlink:href="#g" transform="matrix(1,0,0,1,1212.6164383561645,677.446891222253) translate(274.4 62.6)"/><use xlink:href="#h" transform="matrix(1,0,0,1,1212.6164383561645,677.446891222253) translate(285.35 62.6)"/><use xlink:href="#i" transform="matrix(1,0,0,1,1212.6164383561645,677.446891222253) translate(337.25 62.6)"/></g><path d="M259.45 868.03H755.9v305H259.44z" stroke="#333" fill="#83e0e1"/><path d="M259.45 905.63H755.9m-496.45 133.9H755.9" stroke="#333" fill="none"/><g><use xlink:href="#J" transform="matrix(1,0,0,1,267.45205479452056,876.0348827163355) translate(168.625 14.6)"/></g><g><use xlink:href="#b" transform="matrix(1,0,0,1,271.45205479452056,913.6348827163355) translate(18.35000000000005 62.6)"/><use xlink:href="#D" transform="matrix(1,0,0,1,271.45205479452056,913.6348827163355) translate(124.25000000000006 62.6)"/><use xlink:href="#K" transform="matrix(1,0,0,1,271.45205479452056,913.6348827163355) translate(149.25000000000006 62.6)"/><use xlink:href="#e" transform="matrix(1,0,0,1,271.45205479452056,913.6348827163355) translate(354.9 62.6)"/><use xlink:href="#F" transform="matrix(1,0,0,1,271.45205479452056,913.6348827163355) translate(365.85 62.6)"/><use xlink:href="#g" transform="matrix(1,0,0,1,271.45205479452056,913.6348827163355) translate(385.85 62.6)"/><use xlink:href="#h" transform="matrix(1,0,0,1,271.45205479452056,913.6348827163355) translate(396.79999999999995 62.6)"/><use xlink:href="#i" transform="matrix(1,0,0,1,271.45205479452056,913.6348827163355) translate(448.69999999999993 62.6)"/></g><g><use xlink:href="#G" transform="matrix(1,0,0,1,271.45205479452056,1047.5426218344376) translate(77.80000000000001 62.6)"/><use xlink:href="#D" transform="matrix(1,0,0,1,271.45205479452056,1047.5426218344376) translate(130.70000000000002 62.6)"/><use xlink:href="#L" transform="matrix(1,0,0,1,271.45205479452056,1047.5426218344376) translate(155.70000000000002 62.6)"/><use xlink:href="#e" transform="matrix(1,0,0,1,271.45205479452056,1047.5426218344376) translate(262.55 62.6)"/><use xlink:href="#I" transform="matrix(1,0,0,1,271.45205479452056,1047.5426218344376) translate(273.5 62.6)"/><use xlink:href="#g" transform="matrix(1,0,0,1,271.45205479452056,1047.5426218344376) translate(326.4 62.6)"/><use xlink:href="#h" transform="matrix(1,0,0,1,271.45205479452056,1047.5426218344376) translate(337.35 62.6)"/><use xlink:href="#i" transform="matrix(1,0,0,1,271.45205479452056,1047.5426218344376) translate(389.25 62.6)"/></g><path d="M993.77 868.03h537.8v305h-537.8z" stroke="#333" fill="#83e0e1"/><path d="M993.77 905.63h537.8m-537.8 133.9h537.8" stroke="#333" fill="none"/><g><use xlink:href="#M" transform="matrix(1,0,0,1,1001.7671232876712,876.0348827163355) translate(204.125 14.6)"/></g><g><use xlink:href="#b" transform="matrix(1,0,0,1,1005.7671232876712,913.6348827163355) translate(78.25000000000003 62.6)"/><use xlink:href="#c" transform="matrix(1,0,0,1,1005.7671232876712,913.6348827163355) translate(184.15000000000003 62.6)"/><use xlink:href="#N" transform="matrix(1,0,0,1,1005.7671232876712,913.6348827163355) translate(209.15000000000003 62.6)"/><use xlink:href="#e" transform="matrix(1,0,0,1,1005.7671232876712,913.6348827163355) translate(336 62.6)"/><use xlink:href="#F" transform="matrix(1,0,0,1,1005.7671232876712,913.6348827163355) translate(346.95000000000005 62.6)"/><use xlink:href="#g" transform="matrix(1,0,0,1,1005.7671232876712,913.6348827163355) translate(366.95000000000005 62.6)"/><use xlink:href="#h" transform="matrix(1,0,0,1,1005.7671232876712,913.6348827163355) translate(377.9 62.6)"/><use xlink:href="#i" transform="matrix(1,0,0,1,1005.7671232876712,913.6348827163355) translate(429.79999999999995 62.6)"/></g><g><use xlink:href="#G" transform="matrix(1,0,0,1,1005.7671232876712,1047.5426218344376) translate(127.25 62.6)"/><use xlink:href="#c" transform="matrix(1,0,0,1,1005.7671232876712,1047.5426218344376) translate(180.15 62.6)"/><use xlink:href="#O" transform="matrix(1,0,0,1,1005.7671232876712,1047.5426218344376) translate(205.15 62.6)"/><use xlink:href="#e" transform="matrix(1,0,0,1,1005.7671232876712,1047.5426218344376) translate(254.10000000000002 62.6)"/><use xlink:href="#I" transform="matrix(1,0,0,1,1005.7671232876712,1047.5426218344376) translate(265.05 62.6)"/><use xlink:href="#g" transform="matrix(1,0,0,1,1005.7671232876712,1047.5426218344376) translate(317.95000000000005 62.6)"/><use xlink:href="#h" transform="matrix(1,0,0,1,1005.7671232876712,1047.5426218344376) translate(328.9 62.6)"/><use xlink:href="#i" transform="matrix(1,0,0,1,1005.7671232876712,1047.5426218344376) translate(380.8 62.6)"/></g><path d="M125 497.94h413.7v306H125z" stroke="#333" fill="#83e0e1"/><path d="M125 535.54h413.7M125 658.94h413.7" stroke="#333" fill="none"/><g><use xlink:href="#P" transform="matrix(1,0,0,1,133,505.93915210415093) translate(118.2 14.6)"/></g><g><use xlink:href="#b" transform="matrix(1,0,0,1,137,543.539152104151) translate(38.099999999999994 57.6)"/><use xlink:href="#c" transform="matrix(1,0,0,1,137,543.539152104151) translate(144 57.6)"/><use xlink:href="#d" transform="matrix(1,0,0,1,137,543.539152104151) translate(169 57.6)"/><use xlink:href="#e" transform="matrix(1,0,0,1,137,543.539152104151) translate(253 57.6)"/><use xlink:href="#Q" transform="matrix(1,0,0,1,137,543.539152104151) translate(263.95 57.6)"/><use xlink:href="#i" transform="matrix(1,0,0,1,137,543.539152104151) translate(345.95000000000005 57.6)"/></g><g><use xlink:href="#j" transform="matrix(1,0,0,1,137,666.946891222253) translate(16.725000000000023 57.8)"/><use xlink:href="#k" transform="matrix(1,0,0,1,137,666.946891222253) translate(59.675000000000026 57.8)"/><use xlink:href="#R" transform="matrix(1,0,0,1,137,666.946891222253) translate(84.67500000000003 57.8)"/><use xlink:href="#e" transform="matrix(1,0,0,1,137,666.946891222253) translate(179.62500000000003 57.8)"/><use xlink:href="#S" transform="matrix(1,0,0,1,137,666.946891222253) translate(190.57500000000002 57.8)"/><use xlink:href="#g" transform="matrix(1,0,0,1,137,666.946891222253) translate(304.475 57.8)"/><use xlink:href="#h" transform="matrix(1,0,0,1,137,666.946891222253) translate(315.425 57.8)"/><use xlink:href="#n" transform="matrix(1,0,0,1,137,666.946891222253) translate(367.325 57.8)"/><use xlink:href="#T" transform="matrix(1,0,0,1,137,666.946891222253) translate(58.57500000000002 79.4)"/><use xlink:href="#c" transform="matrix(1,0,0,1,137,666.946891222253) translate(97.82500000000002 79.4)"/><use xlink:href="#U" transform="matrix(1,0,0,1,137,666.946891222253) translate(122.82500000000002 79.4)"/><use xlink:href="#e" transform="matrix(1,0,0,1,137,666.946891222253) translate(171.77500000000003 79.4)"/><use xlink:href="#V" transform="matrix(1,0,0,1,137,666.946891222253) translate(182.72500000000002 79.4)"/><use xlink:href="#g" transform="matrix(1,0,0,1,137,666.946891222253) translate(262.625 79.4)"/><use xlink:href="#h" transform="matrix(1,0,0,1,137,666.946891222253) translate(273.57500000000005 79.4)"/><use xlink:href="#i" transform="matrix(1,0,0,1,137,666.946891222253) translate(325.475 79.4)"/></g><path d="M952.4 186.97h599.86v266H952.4z" stroke="#000" fill="#83e0e1"/><path d="M952.4 224.57h599.86" stroke="#000" fill="none"/><g><use xlink:href="#W" transform="matrix(1,0,0,1,960.3972602739726,194.96511728366454) translate(170.32500000000002 14.6)"/></g><g><use xlink:href="#X" transform="matrix(1,0,0,1,964.3972602739726,232.56511728366453) translate(99.67500000000001 88.5)"/><use xlink:href="#Y" transform="matrix(1,0,0,1,964.3972602739726,232.56511728366453) translate(205.57500000000002 88.5)"/><use xlink:href="#Z" transform="matrix(1,0,0,1,964.3972602739726,232.56511728366453) translate(230.57500000000002 88.5)"/><use xlink:href="#aa" transform="matrix(1,0,0,1,964.3972602739726,232.56511728366453) translate(314.57500000000005 88.5)"/><use xlink:href="#ab" transform="matrix(1,0,0,1,964.3972602739726,232.56511728366453) translate(325.525 88.5)"/><use xlink:href="#ac" transform="matrix(1,0,0,1,964.3972602739726,232.56511728366453) translate(407.52500000000003 88.5)"/><use xlink:href="#ad" transform="matrix(1,0,0,1,964.3972602739726,232.56511728366453) translate(418.475 88.5)"/><use xlink:href="#ae" transform="matrix(1,0,0,1,964.3972602739726,232.56511728366453) translate(470.375 88.5)"/><use xlink:href="#X" transform="matrix(1,0,0,1,964.3972602739726,232.56511728366453) translate(105.75000000000003 110.1)"/><use xlink:href="#af" transform="matrix(1,0,0,1,964.3972602739726,232.56511728366453) translate(211.65000000000003 110.1)"/><use xlink:href="#ag" transform="matrix(1,0,0,1,964.3972602739726,232.56511728366453) translate(236.65000000000003 110.1)"/><use xlink:href="#aa" transform="matrix(1,0,0,1,964.3972602739726,232.56511728366453) translate(301.5 110.1)"/><use xlink:href="#ah" transform="matrix(1,0,0,1,964.3972602739726,232.56511728366453) translate(312.45000000000005 110.1)"/><use xlink:href="#ac" transform="matrix(1,0,0,1,964.3972602739726,232.56511728366453) translate(392.4 110.1)"/><use xlink:href="#ai" transform="matrix(1,0,0,1,964.3972602739726,232.56511728366453) translate(403.35 110.1)"/><use xlink:href="#aj" transform="matrix(1,0,0,1,964.3972602739726,232.56511728366453) translate(464.29999999999995 110.1)"/><use xlink:href="#ak" transform="matrix(1,0,0,1,964.3972602739726,232.56511728366453) translate(28.44999999999999 131.7)"/><use xlink:href="#al" transform="matrix(1,0,0,1,964.3972602739726,232.56511728366453) translate(60.349999999999994 131.7)"/><use xlink:href="#am" transform="matrix(1,0,0,1,964.3972602739726,232.56511728366453) translate(95.35 131.7)"/><use xlink:href="#an" transform="matrix(1,0,0,1,964.3972602739726,232.56511728366453) translate(173.3 131.7)"/><use xlink:href="#ao" transform="matrix(1,0,0,1,964.3972602739726,232.56511728366453) translate(188.3 131.7)"/><use xlink:href="#an" transform="matrix(1,0,0,1,964.3972602739726,232.56511728366453) translate(293.2 131.7)"/><use xlink:href="#ag" transform="matrix(1,0,0,1,964.3972602739726,232.56511728366453) translate(308.2 131.7)"/><use xlink:href="#aa" transform="matrix(1,0,0,1,964.3972602739726,232.56511728366453) translate(373.05 131.7)"/><use xlink:href="#ap" transform="matrix(1,0,0,1,964.3972602739726,232.56511728366453) translate(384 131.7)"/><use xlink:href="#ac" transform="matrix(1,0,0,1,964.3972602739726,232.56511728366453) translate(478.75 131.7)"/><use xlink:href="#ad" transform="matrix(1,0,0,1,964.3972602739726,232.56511728366453) translate(489.7 131.7)"/><use xlink:href="#aq" transform="matrix(1,0,0,1,964.3972602739726,232.56511728366453) translate(541.5999999999999 131.7)"/></g><path d="M228.42 186.97h558.5v266h-558.5z" stroke="#000" fill="#83e0e1"/><path d="M228.42 224.57h558.5" stroke="#000" fill="none"/><g><use xlink:href="#ar" transform="matrix(1,0,0,1,236.4246575342466,194.96511728366454) translate(211.1 14.6)"/></g><g><use xlink:href="#X" transform="matrix(1,0,0,1,240.4246575342466,232.56511728366453) translate(79.17500000000001 88.5)"/><use xlink:href="#Y" transform="matrix(1,0,0,1,240.4246575342466,232.56511728366453) translate(185.07500000000002 88.5)"/><use xlink:href="#Z" transform="matrix(1,0,0,1,240.4246575342466,232.56511728366453) translate(210.07500000000002 88.5)"/><use xlink:href="#aa" transform="matrix(1,0,0,1,240.4246575342466,232.56511728366453) translate(294.07500000000005 88.5)"/><use xlink:href="#ab" transform="matrix(1,0,0,1,240.4246575342466,232.56511728366453) translate(305.025 88.5)"/><use xlink:href="#ac" transform="matrix(1,0,0,1,240.4246575342466,232.56511728366453) translate(387.02500000000003 88.5)"/><use xlink:href="#ad" transform="matrix(1,0,0,1,240.4246575342466,232.56511728366453) translate(397.975 88.5)"/><use xlink:href="#aj" transform="matrix(1,0,0,1,240.4246575342466,232.56511728366453) translate(449.875 88.5)"/><use xlink:href="#as" transform="matrix(1,0,0,1,240.4246575342466,232.56511728366453) translate(53.17500000000001 110.1)"/><use xlink:href="#Y" transform="matrix(1,0,0,1,240.4246575342466,232.56511728366453) translate(97.07500000000002 110.1)"/><use xlink:href="#at" transform="matrix(1,0,0,1,240.4246575342466,232.56511728366453) translate(122.07500000000002 110.1)"/><use xlink:href="#af" transform="matrix(1,0,0,1,240.4246575342466,232.56511728366453) translate(168.97500000000002 110.1)"/><use xlink:href="#au" transform="matrix(1,0,0,1,240.4246575342466,232.56511728366453) translate(193.97500000000002 110.1)"/><use xlink:href="#aa" transform="matrix(1,0,0,1,240.4246575342466,232.56511728366453) translate(255.97500000000002 110.1)"/><use xlink:href="#av" transform="matrix(1,0,0,1,240.4246575342466,232.56511728366453) translate(266.925 110.1)"/><use xlink:href="#ac" transform="matrix(1,0,0,1,240.4246575342466,232.56511728366453) translate(413.02500000000003 110.1)"/><use xlink:href="#ad" transform="matrix(1,0,0,1,240.4246575342466,232.56511728366453) translate(423.975 110.1)"/><use xlink:href="#aj" transform="matrix(1,0,0,1,240.4246575342466,232.56511728366453) translate(475.875 110.1)"/><use xlink:href="#aw" transform="matrix(1,0,0,1,240.4246575342466,232.56511728366453) translate(17.275000000000006 131.7)"/><use xlink:href="#al" transform="matrix(1,0,0,1,240.4246575342466,232.56511728366453) translate(88.125 131.7)"/><use xlink:href="#ax" transform="matrix(1,0,0,1,240.4246575342466,232.56511728366453) translate(123.125 131.7)"/><use xlink:href="#Z" transform="matrix(1,0,0,1,240.4246575342466,232.56511728366453) translate(138.125 131.7)"/><use xlink:href="#ay" transform="matrix(1,0,0,1,240.4246575342466,232.56511728366453) translate(222.125 131.7)"/><use xlink:href="#az" transform="matrix(1,0,0,1,240.4246575342466,232.56511728366453) translate(261.125 131.7)"/><use xlink:href="#aa" transform="matrix(1,0,0,1,240.4246575342466,232.56511728366453) translate(325.125 131.7)"/><use xlink:href="#aA" transform="matrix(1,0,0,1,240.4246575342466,232.56511728366453) translate(336.07500000000005 131.7)"/><use xlink:href="#ac" transform="matrix(1,0,0,1,240.4246575342466,232.56511728366453) translate(448.92500000000007 131.7)"/><use xlink:href="#ad" transform="matrix(1,0,0,1,240.4246575342466,232.56511728366453) translate(459.875 131.7)"/><use xlink:href="#aB" transform="matrix(1,0,0,1,240.4246575342466,232.56511728366453) translate(511.775 131.7)"/></g><path d="M1252.33 454.47v20.98h165.48v3.5" stroke="#000" stroke-width="2" fill="none"/><path d="M1253.33 454.5h-2v-1.03h2z"/><path d="M1417.8 494.2l-4.63-14.26h9.27z" stroke="#000" stroke-width="2"/><path d="M950.9 319.97h-81.24V490.5" stroke="#000" stroke-width="2" fill="none"/><path d="M951.9 320.97h-1.03v-2h1.03z"/><path d="M869.66 505.77l-4.64-14.27h9.27z" stroke="#000" stroke-width="2"/><path d="M788.42 319.97h81.24V490.5" stroke="#000" stroke-width="2" fill="none"/><path d="M788.44 320.97h-1.02v-2h1.02z"/><path d="M869.66 505.77l-4.64-14.27h9.27z" stroke="#000" stroke-width="2"/><path d="M540.2 650.94h39.87v.06h22.37" stroke="#000" stroke-width="2" fill="none"/><path d="M540.22 651.94h-1.02v-2h1.02z"/><path d="M617.7 651l-14.26 4.64v-9.27z" stroke="#000" stroke-width="2"/><path d="M869.66 794v36.27h-362v18.76" stroke="#000" stroke-width="2" fill="none"/><path d="M870.66 794.03h-2V793h2z"/><path d="M507.67 864.3l-4.63-14.27h9.27z" stroke="#000" stroke-width="2"/><path d="M869.66 794v36.27h393v18.76" stroke="#000" stroke-width="2" fill="none"/><path d="M870.66 794.03h-2V793h2z"/><path d="M1262.67 864.3l-4.63-14.27h9.27z" stroke="#000" stroke-width="2"/><defs><path fill="#333" d="M169-182c-1-43-94-46-97-3 18 66 151 10 154 114 3 95-165 93-204 36-6-8-10-19-12-30l50-8c3 46 112 56 116 5-17-69-150-10-154-114-4-87 153-88 188-35 5 8 8 18 10 28" id="aC"/><path fill="#333" d="M115-3C79 11 28 4 28-45v-112H4v-33h27l15-45h31v45h36v33H77v99c-1 23 16 31 38 25v30" id="aD"/><path fill="#333" d="M85 4C-2 5 27-109 22-190h50c7 57-23 150 33 157 60-5 35-97 40-157h50l1 190h-47c-2-12 1-28-3-38-12 25-28 42-61 42" id="aE"/><path fill="#333" d="M88-194c31-1 46 15 58 34l-1-101h50l1 261h-48c-2-10 0-23-3-31C134-8 116 4 84 4 32 4 16-41 15-95c0-56 19-97 73-99zm17 164c33 0 40-30 41-66 1-37-9-64-41-64s-38 30-39 65c0 43 13 65 39 65" id="aF"/><path fill="#333" d="M185-48c-13 30-37 53-82 52C43 2 14-33 14-96s30-98 90-98c62 0 83 45 84 108H66c0 31 8 55 39 56 18 0 30-7 34-22zm-45-69c5-46-57-63-70-21-2 6-4 13-4 21h74" id="aG"/><path fill="#333" d="M135-194c87-1 58 113 63 194h-50c-7-57 23-157-34-157-59 0-34 97-39 157H25l-1-190h47c2 12-1 28 3 38 12-26 28-41 61-42" id="aH"/><path fill="#333" d="M137-138c1-29-70-34-71-4 15 46 118 7 119 86 1 83-164 76-172 9l43-7c4 19 20 25 44 25 33 8 57-30 24-41C81-84 22-81 20-136c-2-80 154-74 161-7" id="aI"/><path fill="#333" d="M24 0v-54h51V0H24" id="aJ"/><path fill="#333" d="M25-224v-37h50v37H25zM75 22c2 45-34 59-81 51V38c22 5 31-5 31-27v-201h50V22" id="aK"/><path fill="#333" d="M110-194c64 0 96 36 96 99 0 64-35 99-97 99-61 0-95-36-95-99 0-62 34-99 96-99zm-1 164c35 0 45-28 45-65 0-40-10-65-43-65-34 0-45 26-45 65 0 36 10 65 43 65" id="aL"/><g id="a"><use transform="matrix(0.05,0,0,0.05,0,0)" xlink:href="#aC"/><use transform="matrix(0.05,0,0,0.05,12,0)" xlink:href="#aD"/><use transform="matrix(0.05,0,0,0.05,17.95,0)" xlink:href="#aE"/><use transform="matrix(0.05,0,0,0.05,28.899999999999995,0)" xlink:href="#aF"/><use transform="matrix(0.05,0,0,0.05,39.85,0)" xlink:href="#aG"/><use transform="matrix(0.05,0,0,0.05,49.85,0)" xlink:href="#aH"/><use transform="matrix(0.05,0,0,0.05,60.800000000000004,0)" xlink:href="#aD"/><use transform="matrix(0.05,0,0,0.05,66.75,0)" xlink:href="#aI"/><use transform="matrix(0.05,0,0,0.05,76.75,0)" xlink:href="#aJ"/><use transform="matrix(0.05,0,0,0.05,81.75,0)" xlink:href="#aK"/><use transform="matrix(0.05,0,0,0.05,86.75,0)" xlink:href="#aI"/><use transform="matrix(0.05,0,0,0.05,96.75,0)" xlink:href="#aL"/><use transform="matrix(0.05,0,0,0.05,107.7,0)" xlink:href="#aH"/></g><path fill="#333" d="M33 0v-248h34V0H33" id="aM"/><path fill="#333" d="M85-194c31 0 48 13 60 33l-1-100h32l1 261h-30c-2-10 0-23-3-31C134-8 116 4 85 4 32 4 16-35 15-94c0-66 23-100 70-100zm9 24c-40 0-46 34-46 75 0 40 6 74 45 74 42 0 51-32 51-76 0-42-9-74-50-73" id="aN"/><path fill="#333" d="M100-194c63 0 86 42 84 106H49c0 40 14 67 53 68 26 1 43-12 49-29l28 8c-11 28-37 45-77 45C44 4 14-33 15-96c1-61 26-98 85-98zm52 81c6-60-76-77-97-28-3 7-6 17-6 28h103" id="aO"/><path fill="#333" d="M117-194c89-4 53 116 60 194h-32v-121c0-31-8-49-39-48C34-167 62-67 57 0H25l-1-190h30c1 10-1 24 2 32 11-22 29-35 61-36" id="aP"/><path fill="#333" d="M59-47c-2 24 18 29 38 22v24C64 9 27 4 27-40v-127H5v-23h24l9-43h21v43h35v23H59v120" id="aQ"/><path fill="#333" d="M24-231v-30h32v30H24zM24 0v-190h32V0H24" id="aR"/><path fill="#333" d="M101-234c-31-9-42 10-38 44h38v23H63V0H32v-167H5v-23h27c-7-52 17-82 69-68v24" id="aS"/><path fill="#333" d="M96-169c-40 0-48 33-48 73s9 75 48 75c24 0 41-14 43-38l32 2c-6 37-31 61-74 61-59 0-76-41-82-99-10-93 101-131 147-64 4 7 5 14 7 22l-32 3c-4-21-16-35-41-35" id="aT"/><path fill="#333" d="M141-36C126-15 110 5 73 4 37 3 15-17 15-53c-1-64 63-63 125-63 3-35-9-54-41-54-24 1-41 7-42 31l-33-3c5-37 33-52 76-52 45 0 72 20 72 64v82c-1 20 7 32 28 27v20c-31 9-61-2-59-35zM48-53c0 20 12 33 32 33 41-3 63-29 60-74-43 2-92-5-92 41" id="aU"/><path fill="#333" d="M96-169c-40 0-48 33-48 73s9 75 48 75c24 0 41-14 43-38l32 2c-6 37-31 61-74 61-59 0-76-41-82-99-10-93 101-131 147-64 4 7 5 14 7 22l-32 3c-4-21-16-35-41-35zm3 187c19-1 33 8 33 26 0 31-30 33-64 32V58c18 2 39 4 41-13 1-15-18-13-34-13L87 0h19" id="aV"/><path fill="#333" d="M141-36C126-15 110 5 73 4 37 3 15-17 15-53c-1-64 63-63 125-63 3-35-9-54-41-54-24 1-41 7-42 31l-33-3c5-37 33-52 76-52 45 0 72 20 72 64v82c-1 20 7 32 28 27v20c-31 9-61-2-59-35zM48-53c0 20 12 33 32 33 41-3 63-29 60-74-43 2-92-5-92 41zm117-205c-3 23-9 48-36 47-26-1-65-44-74 0H39c4-23 8-48 36-47s64 44 74 0h16" id="aW"/><path fill="#333" d="M100-194c62-1 85 37 85 99 1 63-27 99-86 99S16-35 15-95c0-66 28-99 85-99zM99-20c44 1 53-31 53-75 0-43-8-75-51-75s-53 32-53 75 10 74 51 75" id="aX"/><g id="b"><use transform="matrix(0.05,0,0,0.05,0,0)" xlink:href="#aM"/><use transform="matrix(0.05,0,0,0.05,5,0)" xlink:href="#aN"/><use transform="matrix(0.05,0,0,0.05,15,0)" xlink:href="#aO"/><use transform="matrix(0.05,0,0,0.05,25,0)" xlink:href="#aP"/><use transform="matrix(0.05,0,0,0.05,35,0)" xlink:href="#aQ"/><use transform="matrix(0.05,0,0,0.05,40,0)" xlink:href="#aR"/><use transform="matrix(0.05,0,0,0.05,43.95,0)" xlink:href="#aS"/><use transform="matrix(0.05,0,0,0.05,48.95,0)" xlink:href="#aR"/><use transform="matrix(0.05,0,0,0.05,52.900000000000006,0)" xlink:href="#aT"/><use transform="matrix(0.05,0,0,0.05,61.900000000000006,0)" xlink:href="#aU"/><use transform="matrix(0.05,0,0,0.05,71.9,0)" xlink:href="#aV"/><use transform="matrix(0.05,0,0,0.05,80.9,0)" xlink:href="#aW"/><use transform="matrix(0.05,0,0,0.05,90.9,0)" xlink:href="#aX"/></g><g id="c"><use transform="matrix(0.05,0,0,0.05,0,0)" xlink:href="#aN"/><use transform="matrix(0.05,0,0,0.05,10,0)" xlink:href="#aX"/></g><path fill="#333" d="M135-143c-3-34-86-38-87 0 15 53 115 12 119 90S17 21 10-45l28-5c4 36 97 45 98 0-10-56-113-15-118-90-4-57 82-63 122-42 12 7 21 19 24 35" id="aY"/><path fill="#333" d="M84 4C-5 8 30-112 23-190h32v120c0 31 7 50 39 49 72-2 45-101 50-169h31l1 190h-30c-1-10 1-25-2-33-11 22-28 36-60 37" id="aZ"/><g id="d"><use transform="matrix(0.05,0,0,0.05,0,0)" xlink:href="#aO"/><use transform="matrix(0.05,0,0,0.05,10,0)" xlink:href="#aY"/><use transform="matrix(0.05,0,0,0.05,19,0)" xlink:href="#aQ"/><use transform="matrix(0.05,0,0,0.05,24,0)" xlink:href="#aZ"/><use transform="matrix(0.05,0,0,0.05,34,0)" xlink:href="#aN"/><use transform="matrix(0.05,0,0,0.05,44,0)" xlink:href="#aU"/><use transform="matrix(0.05,0,0,0.05,54,0)" xlink:href="#aP"/><use transform="matrix(0.05,0,0,0.05,64,0)" xlink:href="#aQ"/><use transform="matrix(0.05,0,0,0.05,69,0)" xlink:href="#aO"/></g><path fill="#333" d="M87 75C49 33 22-17 22-94c0-76 28-126 65-167h31c-38 41-64 92-64 168S80 34 118 75H87" id="ba"/><use transform="matrix(0.05,0,0,0.05,0,0)" xlink:href="#ba" id="e"/><g id="f"><use transform="matrix(0.05,0,0,0.05,0,0)" xlink:href="#aM"/><use transform="matrix(0.05,0,0,0.05,5,0)" xlink:href="#aN"/></g><path fill="#333" d="M16-82v-28h88v28H16" id="bb"/><use transform="matrix(0.05,0,0,0.05,0,0)" xlink:href="#bb" id="g"/><path fill="#333" d="M185-189c-5-48-123-54-124 2 14 75 158 14 163 119 3 78-121 87-175 55-17-10-28-26-33-46l33-7c5 56 141 63 141-1 0-78-155-14-162-118-5-82 145-84 179-34 5 7 8 16 11 25" id="bc"/><path fill="#333" d="M114-163C36-179 61-72 57 0H25l-1-190h30c1 12-1 29 2 39 6-27 23-49 58-41v29" id="bd"/><path fill="#333" d="M177-190C167-65 218 103 67 71c-23-6-38-20-44-43l32-5c15 47 100 32 89-28v-30C133-14 115 1 83 1 29 1 15-40 15-95c0-56 16-97 71-98 29-1 48 16 59 35 1-10 0-23 2-32h30zM94-22c36 0 50-32 50-73 0-42-14-75-50-75-39 0-46 34-46 75s6 73 46 73" id="be"/><g id="h"><use transform="matrix(0.05,0,0,0.05,0,0)" xlink:href="#bc"/><use transform="matrix(0.05,0,0,0.05,12,0)" xlink:href="#aQ"/><use transform="matrix(0.05,0,0,0.05,17,0)" xlink:href="#bd"/><use transform="matrix(0.05,0,0,0.05,22.95,0)" xlink:href="#aR"/><use transform="matrix(0.05,0,0,0.05,26.899999999999995,0)" xlink:href="#aP"/><use transform="matrix(0.05,0,0,0.05,36.9,0)" xlink:href="#be"/></g><path fill="#333" d="M33-261c38 41 65 92 65 168S71 34 33 75H2C39 34 66-17 66-93S39-220 2-261h31" id="bf"/><use transform="matrix(0.05,0,0,0.05,0,0)" xlink:href="#bf" id="i"/><path fill="#333" d="M30-248c118-7 216 8 213 122C240-48 200 0 122 0H30v-248zM63-27c89 8 146-16 146-99s-60-101-146-95v194" id="bg"/><g id="j"><use transform="matrix(0.05,0,0,0.05,0,0)" xlink:href="#bg"/><use transform="matrix(0.05,0,0,0.05,12.950000000000001,0)" xlink:href="#aU"/><use transform="matrix(0.05,0,0,0.05,22.950000000000003,0)" xlink:href="#aQ"/><use transform="matrix(0.05,0,0,0.05,27.950000000000003,0)" xlink:href="#aU"/></g><g id="k"><use transform="matrix(0.05,0,0,0.05,0,0)" xlink:href="#aN"/><use transform="matrix(0.05,0,0,0.05,10,0)" xlink:href="#aO"/></g><g id="l"><use transform="matrix(0.05,0,0,0.05,0,0)" xlink:href="#bd"/><use transform="matrix(0.05,0,0,0.05,5.95,0)" xlink:href="#aO"/><use transform="matrix(0.05,0,0,0.05,15.949999999999998,0)" xlink:href="#be"/><use transform="matrix(0.05,0,0,0.05,25.950000000000003,0)" xlink:href="#aR"/><use transform="matrix(0.05,0,0,0.05,29.899999999999995,0)" xlink:href="#aY"/><use transform="matrix(0.05,0,0,0.05,38.9,0)" xlink:href="#aQ"/><use transform="matrix(0.05,0,0,0.05,43.9,0)" xlink:href="#bd"/><use transform="matrix(0.05,0,0,0.05,49.85,0)" xlink:href="#aX"/></g><path fill="#333" d="M233-177c-1 41-23 64-60 70L243 0h-38l-65-103H63V0H30v-248c88 3 205-21 203 71zM63-129c60-2 137 13 137-47 0-61-80-42-137-45v92" id="bh"/><g id="m"><use transform="matrix(0.05,0,0,0.05,0,0)" xlink:href="#bh"/><use transform="matrix(0.05,0,0,0.05,12.950000000000001,0)" xlink:href="#aO"/><use transform="matrix(0.05,0,0,0.05,22.950000000000003,0)" xlink:href="#be"/><use transform="matrix(0.05,0,0,0.05,32.95,0)" xlink:href="#aR"/><use transform="matrix(0.05,0,0,0.05,36.900000000000006,0)" xlink:href="#aY"/><use transform="matrix(0.05,0,0,0.05,45.900000000000006,0)" xlink:href="#aQ"/><use transform="matrix(0.05,0,0,0.05,50.900000000000006,0)" xlink:href="#bd"/><use transform="matrix(0.05,0,0,0.05,56.85,0)" xlink:href="#aO"/><use transform="matrix(0.05,0,0,0.05,66.85000000000001,0)" xlink:href="#aN"/><use transform="matrix(0.05,0,0,0.05,76.85000000000001,0)" xlink:href="#bg"/><use transform="matrix(0.05,0,0,0.05,89.80000000000001,0)" xlink:href="#aU"/><use transform="matrix(0.05,0,0,0.05,99.80000000000001,0)" xlink:href="#aQ"/><use transform="matrix(0.05,0,0,0.05,104.80000000000001,0)" xlink:href="#aO"/></g><use transform="matrix(0.05,0,0,0.05,0,0)" xlink:href="#bf" id="n"/><path fill="#333" d="M30 0v-248h187v28H63v79h144v27H63v87h162V0H30" id="bi"/><g id="o"><use transform="matrix(0.05,0,0,0.05,0,0)" xlink:href="#bi"/><use transform="matrix(0.05,0,0,0.05,12,0)" xlink:href="#aY"/><use transform="matrix(0.05,0,0,0.05,21,0)" xlink:href="#aQ"/><use transform="matrix(0.05,0,0,0.05,26,0)" xlink:href="#aU"/><use transform="matrix(0.05,0,0,0.05,36,0)" xlink:href="#aN"/><use transform="matrix(0.05,0,0,0.05,46,0)" xlink:href="#aX"/></g><g id="p"><use transform="matrix(0.05,0,0,0.05,0,0)" xlink:href="#bc"/><use transform="matrix(0.05,0,0,0.05,12,0)" xlink:href="#aQ"/><use transform="matrix(0.05,0,0,0.05,17,0)" xlink:href="#aU"/><use transform="matrix(0.05,0,0,0.05,27,0)" xlink:href="#aQ"/><use transform="matrix(0.05,0,0,0.05,32,0)" xlink:href="#aO"/></g><path fill="#333" d="M212-179c-10-28-35-45-73-45-59 0-87 40-87 99 0 60 29 101 89 101 43 0 62-24 78-52l27 14C228-24 195 4 139 4 59 4 22-46 18-125c-6-104 99-153 187-111 19 9 31 26 39 46" id="bj"/><g id="q"><use transform="matrix(0.05,0,0,0.05,0,0)" xlink:href="#bj"/><use transform="matrix(0.05,0,0,0.05,12.950000000000001,0)" xlink:href="#aR"/><use transform="matrix(0.05,0,0,0.05,16.900000000000002,0)" xlink:href="#aN"/><use transform="matrix(0.05,0,0,0.05,26.900000000000002,0)" xlink:href="#aU"/><use transform="matrix(0.05,0,0,0.05,36.900000000000006,0)" xlink:href="#aN"/><use transform="matrix(0.05,0,0,0.05,46.900000000000006,0)" xlink:href="#aO"/></g><path fill="#333" d="M179-190L93 31C79 59 56 82 12 73V49c39 6 53-20 64-50L1-190h34L92-34l54-156h33" id="bk"/><g id="r"><use transform="matrix(0.05,0,0,0.05,0,0)" xlink:href="#bj"/><use transform="matrix(0.05,0,0,0.05,12.950000000000001,0)" xlink:href="#aR"/><use transform="matrix(0.05,0,0,0.05,16.900000000000002,0)" xlink:href="#aQ"/><use transform="matrix(0.05,0,0,0.05,21.900000000000002,0)" xlink:href="#bk"/></g><use transform="matrix(0.05,0,0,0.05,0,0)" xlink:href="#bf" id="s"/><path fill="#333" d="M232-93c-1 65-40 97-104 97C67 4 28-28 28-90v-158h33c8 89-33 224 67 224 102 0 64-133 71-224h33v155" id="bl"/><path fill="#333" d="M108 0H70L1-190h34L89-25l56-165h34" id="bm"/><g id="t"><use transform="matrix(0.05,0,0,0.05,0,0)" xlink:href="#bl"/><use transform="matrix(0.05,0,0,0.05,12.950000000000001,0)" xlink:href="#aP"/><use transform="matrix(0.05,0,0,0.05,22.950000000000003,0)" xlink:href="#aR"/><use transform="matrix(0.05,0,0,0.05,26.900000000000002,0)" xlink:href="#bm"/><use transform="matrix(0.05,0,0,0.05,35.900000000000006,0)" xlink:href="#aO"/><use transform="matrix(0.05,0,0,0.05,45.900000000000006,0)" xlink:href="#bd"/><use transform="matrix(0.05,0,0,0.05,51.85,0)" xlink:href="#aY"/><use transform="matrix(0.05,0,0,0.05,60.85,0)" xlink:href="#aR"/><use transform="matrix(0.05,0,0,0.05,64.80000000000001,0)" xlink:href="#aN"/><use transform="matrix(0.05,0,0,0.05,74.80000000000001,0)" xlink:href="#aU"/><use transform="matrix(0.05,0,0,0.05,84.80000000000001,0)" xlink:href="#aN"/><use transform="matrix(0.05,0,0,0.05,94.80000000000001,0)" xlink:href="#aO"/></g><g id="u"><use transform="matrix(0.05,0,0,0.05,0,0)" xlink:href="#bl"/><use transform="matrix(0.05,0,0,0.05,12.950000000000001,0)" xlink:href="#aP"/><use transform="matrix(0.05,0,0,0.05,22.950000000000003,0)" xlink:href="#aR"/><use transform="matrix(0.05,0,0,0.05,26.900000000000002,0)" xlink:href="#bm"/><use transform="matrix(0.05,0,0,0.05,35.900000000000006,0)" xlink:href="#aO"/><use transform="matrix(0.05,0,0,0.05,45.900000000000006,0)" xlink:href="#bd"/><use transform="matrix(0.05,0,0,0.05,51.85,0)" xlink:href="#aY"/><use transform="matrix(0.05,0,0,0.05,60.85,0)" xlink:href="#aR"/><use transform="matrix(0.05,0,0,0.05,64.80000000000001,0)" xlink:href="#aQ"/><use transform="matrix(0.05,0,0,0.05,69.80000000000001,0)" xlink:href="#bk"/><use transform="matrix(0.05,0,0,0.05,78.80000000000001,0)" xlink:href="#aM"/><use transform="matrix(0.05,0,0,0.05,83.80000000000001,0)" xlink:href="#aN"/></g><g id="v"><use transform="matrix(0.05,0,0,0.05,0,0)" xlink:href="#aM"/><use transform="matrix(0.05,0,0,0.05,5,0)" xlink:href="#aP"/><use transform="matrix(0.05,0,0,0.05,15,0)" xlink:href="#aQ"/><use transform="matrix(0.05,0,0,0.05,20,0)" xlink:href="#aO"/><use transform="matrix(0.05,0,0,0.05,30,0)" xlink:href="#be"/><use transform="matrix(0.05,0,0,0.05,40,0)" xlink:href="#aO"/><use transform="matrix(0.05,0,0,0.05,50,0)" xlink:href="#bd"/></g><g id="w"><use transform="matrix(0.05,0,0,0.05,0,0)" xlink:href="#bj"/><use transform="matrix(0.05,0,0,0.05,12.950000000000001,0)" xlink:href="#aZ"/><use transform="matrix(0.05,0,0,0.05,22.950000000000003,0)" xlink:href="#bd"/><use transform="matrix(0.05,0,0,0.05,28.900000000000002,0)" xlink:href="#aY"/><use transform="matrix(0.05,0,0,0.05,37.900000000000006,0)" xlink:href="#aX"/></g><g id="x"><use transform="matrix(0.05,0,0,0.05,0,0)" xlink:href="#bj"/><use transform="matrix(0.05,0,0,0.05,12.950000000000001,0)" xlink:href="#aX"/><use transform="matrix(0.05,0,0,0.05,22.950000000000003,0)" xlink:href="#aZ"/><use transform="matrix(0.05,0,0,0.05,32.95,0)" xlink:href="#bd"/><use transform="matrix(0.05,0,0,0.05,38.900000000000006,0)" xlink:href="#aY"/><use transform="matrix(0.05,0,0,0.05,47.900000000000006,0)" xlink:href="#aO"/><use transform="matrix(0.05,0,0,0.05,57.900000000000006,0)" xlink:href="#aM"/><use transform="matrix(0.05,0,0,0.05,62.900000000000006,0)" xlink:href="#aN"/></g><path fill="#333" d="M63-220v92h138v28H63V0H30v-248h175v28H63" id="bn"/><g id="y"><use transform="matrix(0.05,0,0,0.05,0,0)" xlink:href="#bn"/><use transform="matrix(0.05,0,0,0.05,10.950000000000001,0)" xlink:href="#aX"/><use transform="matrix(0.05,0,0,0.05,20.950000000000003,0)" xlink:href="#aP"/><use transform="matrix(0.05,0,0,0.05,30.950000000000003,0)" xlink:href="#aQ"/><use transform="matrix(0.05,0,0,0.05,35.95,0)" xlink:href="#aO"/></g><g id="z"><use transform="matrix(0.05,0,0,0.05,0,0)" xlink:href="#aP"/><use transform="matrix(0.05,0,0,0.05,10,0)" xlink:href="#aX"/></g><g id="A"><use transform="matrix(0.05,0,0,0.05,0,0)" xlink:href="#aY"/><use transform="matrix(0.05,0,0,0.05,9,0)" xlink:href="#aR"/><use transform="matrix(0.05,0,0,0.05,12.949999999999998,0)" xlink:href="#aQ"/><use transform="matrix(0.05,0,0,0.05,17.95,0)" xlink:href="#aO"/></g><path fill="#333" d="M115-194c55 1 70 41 70 98S169 2 115 4C84 4 66-9 55-30l1 105H24l-1-265h31l2 30c10-21 28-34 59-34zm-8 174c40 0 45-34 45-75s-6-73-45-74c-42 0-51 32-51 76 0 43 10 73 51 73" id="bo"/><g id="B"><use transform="matrix(0.05,0,0,0.05,0,0)" xlink:href="#bc"/><use transform="matrix(0.05,0,0,0.05,12,0)" xlink:href="#aR"/><use transform="matrix(0.05,0,0,0.05,15.949999999999998,0)" xlink:href="#be"/><use transform="matrix(0.05,0,0,0.05,25.950000000000003,0)" xlink:href="#aP"/><use transform="matrix(0.05,0,0,0.05,35.95,0)" xlink:href="#aZ"/><use transform="matrix(0.05,0,0,0.05,45.95,0)" xlink:href="#bo"/><use transform="matrix(0.05,0,0,0.05,55.95,0)" xlink:href="#bc"/><use transform="matrix(0.05,0,0,0.05,67.95,0)" xlink:href="#aX"/><use transform="matrix(0.05,0,0,0.05,77.95,0)" xlink:href="#aZ"/><use transform="matrix(0.05,0,0,0.05,87.95,0)" xlink:href="#bd"/><use transform="matrix(0.05,0,0,0.05,93.9,0)" xlink:href="#aT"/><use transform="matrix(0.05,0,0,0.05,102.9,0)" xlink:href="#aO"/></g><path fill="#333" d="M135-194c52 0 70 43 70 98 0 56-19 99-73 100-30 1-46-15-58-35L72 0H24l1-261h50v104c11-23 29-37 60-37zM114-30c31 0 40-27 40-66 0-37-7-63-39-63s-41 28-41 65c0 36 8 64 40 64" id="bp"/><path fill="#333" d="M190-63c-7 42-38 67-86 67-59 0-84-38-90-98-12-110 154-137 174-36l-49 2c-2-19-15-32-35-32-30 0-35 28-38 64-6 74 65 87 74 30" id="bq"/><g id="C"><use transform="matrix(0.05,0,0,0.05,0,0)" xlink:href="#aC"/><use transform="matrix(0.05,0,0,0.05,12,0)" xlink:href="#aE"/><use transform="matrix(0.05,0,0,0.05,22.950000000000003,0)" xlink:href="#bp"/><use transform="matrix(0.05,0,0,0.05,33.900000000000006,0)" xlink:href="#aK"/><use transform="matrix(0.05,0,0,0.05,38.900000000000006,0)" xlink:href="#aG"/><use transform="matrix(0.05,0,0,0.05,48.900000000000006,0)" xlink:href="#bq"/><use transform="matrix(0.05,0,0,0.05,58.900000000000006,0)" xlink:href="#aD"/><use transform="matrix(0.05,0,0,0.05,64.85000000000001,0)" xlink:href="#aI"/><use transform="matrix(0.05,0,0,0.05,74.85000000000001,0)" xlink:href="#aJ"/><use transform="matrix(0.05,0,0,0.05,79.85000000000001,0)" xlink:href="#aK"/><use transform="matrix(0.05,0,0,0.05,84.85000000000001,0)" xlink:href="#aI"/><use transform="matrix(0.05,0,0,0.05,94.85000000000001,0)" xlink:href="#aL"/><use transform="matrix(0.05,0,0,0.05,105.80000000000001,0)" xlink:href="#aH"/></g><g id="D"><use transform="matrix(0.05,0,0,0.05,0,0)" xlink:href="#aN"/><use transform="matrix(0.05,0,0,0.05,10,0)" xlink:href="#aU"/></g><path fill="#333" d="M210-169c-67 3-38 105-44 169h-31v-121c0-29-5-50-35-48C34-165 62-65 56 0H25l-1-190h30c1 10-1 24 2 32 10-44 99-50 107 0 11-21 27-35 58-36 85-2 47 119 55 194h-31v-121c0-29-5-49-35-48" id="br"/><path fill="#333" d="M100-194c63 0 86 42 84 106H49c0 40 14 67 53 68 26 1 43-12 49-29l28 8c-11 28-37 45-77 45C44 4 14-33 15-96c1-61 26-98 85-98zm52 81c6-60-76-77-97-28-3 7-6 17-6 28h103zm-74-98c8-23 27-35 38-54h36v5l-58 49H78" id="bs"/><path fill="#333" d="M0 4l72-265h28L28 4H0" id="bt"/><path fill="#333" d="M115-194c53 0 69 39 70 98 0 66-23 100-70 100C84 3 66-7 56-30L54 0H23l1-261h32v101c10-23 28-34 59-34zm-8 174c40 0 45-34 45-75 0-40-5-75-45-74-42 0-51 32-51 76 0 43 10 73 51 73" id="bu"/><path fill="#333" d="M24-231v-30h32v30H24zM-9 49c24 4 33-6 33-30v-209h32V24c2 40-23 58-65 49V49" id="bv"/><g id="E"><use transform="matrix(0.05,0,0,0.05,0,0)" xlink:href="#br"/><use transform="matrix(0.05,0,0,0.05,14.950000000000001,0)" xlink:href="#aU"/><use transform="matrix(0.05,0,0,0.05,24.950000000000003,0)" xlink:href="#aQ"/><use transform="matrix(0.05,0,0,0.05,29.950000000000003,0)" xlink:href="#bs"/><use transform="matrix(0.05,0,0,0.05,39.95,0)" xlink:href="#bd"/><use transform="matrix(0.05,0,0,0.05,45.900000000000006,0)" xlink:href="#aR"/><use transform="matrix(0.05,0,0,0.05,49.85000000000001,0)" xlink:href="#aU"/><use transform="matrix(0.05,0,0,0.05,59.85,0)" xlink:href="#bt"/><use transform="matrix(0.05,0,0,0.05,64.85000000000001,0)" xlink:href="#bc"/><use transform="matrix(0.05,0,0,0.05,76.85000000000001,0)" xlink:href="#aZ"/><use transform="matrix(0.05,0,0,0.05,86.85000000000001,0)" xlink:href="#bu"/><use transform="matrix(0.05,0,0,0.05,96.85000000000001,0)" xlink:href="#bv"/><use transform="matrix(0.05,0,0,0.05,100.80000000000001,0)" xlink:href="#aO"/><use transform="matrix(0.05,0,0,0.05,110.80000000000001,0)" xlink:href="#aT"/><use transform="matrix(0.05,0,0,0.05,119.80000000000001,0)" xlink:href="#aQ"/><use transform="matrix(0.05,0,0,0.05,124.80000000000001,0)" xlink:href="#aM"/><use transform="matrix(0.05,0,0,0.05,129.8,0)" xlink:href="#aN"/></g><g id="F"><use transform="matrix(0.05,0,0,0.05,0,0)" xlink:href="#aM"/><use transform="matrix(0.05,0,0,0.05,5,0)" xlink:href="#aN"/></g><path fill="#333" d="M190 0L58-211 59 0H30v-248h39L202-35l-2-213h31V0h-41" id="bw"/><g id="G"><use transform="matrix(0.05,0,0,0.05,0,0)" xlink:href="#bw"/><use transform="matrix(0.05,0,0,0.05,12.950000000000001,0)" xlink:href="#aX"/><use transform="matrix(0.05,0,0,0.05,22.950000000000003,0)" xlink:href="#br"/><use transform="matrix(0.05,0,0,0.05,37.900000000000006,0)" xlink:href="#aO"/></g><g id="H"><use transform="matrix(0.05,0,0,0.05,0,0)" xlink:href="#br"/><use transform="matrix(0.05,0,0,0.05,14.950000000000001,0)" xlink:href="#aU"/><use transform="matrix(0.05,0,0,0.05,24.950000000000003,0)" xlink:href="#aQ"/><use transform="matrix(0.05,0,0,0.05,29.950000000000003,0)" xlink:href="#bs"/><use transform="matrix(0.05,0,0,0.05,39.95,0)" xlink:href="#bd"/><use transform="matrix(0.05,0,0,0.05,45.900000000000006,0)" xlink:href="#aR"/><use transform="matrix(0.05,0,0,0.05,49.85000000000001,0)" xlink:href="#aU"/></g><g id="I"><use transform="matrix(0.05,0,0,0.05,0,0)" xlink:href="#bw"/><use transform="matrix(0.05,0,0,0.05,12.950000000000001,0)" xlink:href="#aU"/><use transform="matrix(0.05,0,0,0.05,22.950000000000003,0)" xlink:href="#br"/><use transform="matrix(0.05,0,0,0.05,37.900000000000006,0)" xlink:href="#aO"/></g><path fill="#333" d="M238-95c0 69-44 99-111 99C63 4 22-25 22-93v-155h51v151c-1 38 19 59 55 60 90 1 49-130 58-211h52v153" id="bx"/><path fill="#333" d="M25-224v-37h50v37H25zM25 0v-190h50V0H25" id="by"/><path fill="#333" d="M128 0H69L1-190h53L99-40l48-150h52" id="bz"/><path fill="#333" d="M135-150c-39-12-60 13-60 57V0H25l-1-190h47c2 13-1 29 3 40 6-28 27-53 61-41v41" id="bA"/><g id="J"><use transform="matrix(0.05,0,0,0.05,0,0)" xlink:href="#bx"/><use transform="matrix(0.05,0,0,0.05,12.950000000000001,0)" xlink:href="#aH"/><use transform="matrix(0.05,0,0,0.05,23.900000000000002,0)" xlink:href="#by"/><use transform="matrix(0.05,0,0,0.05,28.900000000000002,0)" xlink:href="#bz"/><use transform="matrix(0.05,0,0,0.05,38.900000000000006,0)" xlink:href="#aG"/><use transform="matrix(0.05,0,0,0.05,48.900000000000006,0)" xlink:href="#bA"/><use transform="matrix(0.05,0,0,0.05,55.900000000000006,0)" xlink:href="#aI"/><use transform="matrix(0.05,0,0,0.05,65.9,0)" xlink:href="#by"/><use transform="matrix(0.05,0,0,0.05,70.9,0)" xlink:href="#aD"/><use transform="matrix(0.05,0,0,0.05,76.85000000000001,0)" xlink:href="#by"/><use transform="matrix(0.05,0,0,0.05,81.85000000000001,0)" xlink:href="#aG"/><use transform="matrix(0.05,0,0,0.05,91.85000000000001,0)" xlink:href="#aI"/><use transform="matrix(0.05,0,0,0.05,101.85000000000001,0)" xlink:href="#aJ"/><use transform="matrix(0.05,0,0,0.05,106.85000000000001,0)" xlink:href="#aK"/><use transform="matrix(0.05,0,0,0.05,111.85000000000001,0)" xlink:href="#aI"/><use transform="matrix(0.05,0,0,0.05,121.85000000000001,0)" xlink:href="#aL"/><use transform="matrix(0.05,0,0,0.05,132.8,0)" xlink:href="#aH"/></g><g id="K"><use transform="matrix(0.05,0,0,0.05,0,0)" xlink:href="#aZ"/><use transform="matrix(0.05,0,0,0.05,10,0)" xlink:href="#aP"/><use transform="matrix(0.05,0,0,0.05,20,0)" xlink:href="#aR"/><use transform="matrix(0.05,0,0,0.05,23.95,0)" xlink:href="#bm"/><use transform="matrix(0.05,0,0,0.05,32.95,0)" xlink:href="#aO"/><use transform="matrix(0.05,0,0,0.05,42.95,0)" xlink:href="#bd"/><use transform="matrix(0.05,0,0,0.05,48.900000000000006,0)" xlink:href="#aY"/><use transform="matrix(0.05,0,0,0.05,57.900000000000006,0)" xlink:href="#aR"/><use transform="matrix(0.05,0,0,0.05,61.85,0)" xlink:href="#aN"/><use transform="matrix(0.05,0,0,0.05,71.85000000000001,0)" xlink:href="#aU"/><use transform="matrix(0.05,0,0,0.05,81.85000000000001,0)" xlink:href="#aN"/><use transform="matrix(0.05,0,0,0.05,91.85000000000001,0)" xlink:href="#aO"/><use transform="matrix(0.05,0,0,0.05,101.85000000000001,0)" xlink:href="#bt"/><use transform="matrix(0.05,0,0,0.05,106.85000000000001,0)" xlink:href="#bl"/><use transform="matrix(0.05,0,0,0.05,119.80000000000001,0)" xlink:href="#aP"/><use transform="matrix(0.05,0,0,0.05,129.8,0)" xlink:href="#aR"/><use transform="matrix(0.05,0,0,0.05,133.75,0)" xlink:href="#bm"/><use transform="matrix(0.05,0,0,0.05,142.75,0)" xlink:href="#aO"/><use transform="matrix(0.05,0,0,0.05,152.75,0)" xlink:href="#bd"/><use transform="matrix(0.05,0,0,0.05,158.7,0)" xlink:href="#aY"/><use transform="matrix(0.05,0,0,0.05,167.7,0)" xlink:href="#aR"/><use transform="matrix(0.05,0,0,0.05,171.64999999999998,0)" xlink:href="#aQ"/><use transform="matrix(0.05,0,0,0.05,176.64999999999998,0)" xlink:href="#bk"/><use transform="matrix(0.05,0,0,0.05,185.64999999999998,0)" xlink:href="#aM"/><use transform="matrix(0.05,0,0,0.05,190.64999999999998,0)" xlink:href="#aN"/></g><g id="L"><use transform="matrix(0.05,0,0,0.05,0,0)" xlink:href="#aZ"/><use transform="matrix(0.05,0,0,0.05,10,0)" xlink:href="#aP"/><use transform="matrix(0.05,0,0,0.05,20,0)" xlink:href="#aR"/><use transform="matrix(0.05,0,0,0.05,23.95,0)" xlink:href="#bm"/><use transform="matrix(0.05,0,0,0.05,32.95,0)" xlink:href="#aO"/><use transform="matrix(0.05,0,0,0.05,42.95,0)" xlink:href="#bd"/><use transform="matrix(0.05,0,0,0.05,48.900000000000006,0)" xlink:href="#aY"/><use transform="matrix(0.05,0,0,0.05,57.900000000000006,0)" xlink:href="#aR"/><use transform="matrix(0.05,0,0,0.05,61.85,0)" xlink:href="#aN"/><use transform="matrix(0.05,0,0,0.05,71.85000000000001,0)" xlink:href="#aU"/><use transform="matrix(0.05,0,0,0.05,81.85000000000001,0)" xlink:href="#aN"/><use transform="matrix(0.05,0,0,0.05,91.85000000000001,0)" xlink:href="#aO"/></g><path fill="#333" d="M67-125c0 53 21 87 73 88 37 1 54-22 65-47l45 17C233-25 199 4 140 4 58 4 20-42 15-125 8-235 124-281 211-232c18 10 29 29 36 50l-46 12c-8-25-30-41-62-41-52 0-71 34-72 86" id="bB"/><g id="M"><use transform="matrix(0.05,0,0,0.05,0,0)" xlink:href="#bB"/><use transform="matrix(0.05,0,0,0.05,12.950000000000001,0)" xlink:href="#aL"/><use transform="matrix(0.05,0,0,0.05,23.900000000000002,0)" xlink:href="#aE"/><use transform="matrix(0.05,0,0,0.05,34.85,0)" xlink:href="#bA"/><use transform="matrix(0.05,0,0,0.05,41.85,0)" xlink:href="#aI"/><use transform="matrix(0.05,0,0,0.05,51.85,0)" xlink:href="#aG"/><use transform="matrix(0.05,0,0,0.05,61.85,0)" xlink:href="#aI"/><use transform="matrix(0.05,0,0,0.05,71.85,0)" xlink:href="#aJ"/><use transform="matrix(0.05,0,0,0.05,76.85,0)" xlink:href="#aK"/><use transform="matrix(0.05,0,0,0.05,81.85,0)" xlink:href="#aI"/><use transform="matrix(0.05,0,0,0.05,91.85,0)" xlink:href="#aL"/><use transform="matrix(0.05,0,0,0.05,102.80000000000001,0)" xlink:href="#aH"/></g><g id="N"><use transform="matrix(0.05,0,0,0.05,0,0)" xlink:href="#aT"/><use transform="matrix(0.05,0,0,0.05,9,0)" xlink:href="#aZ"/><use transform="matrix(0.05,0,0,0.05,19,0)" xlink:href="#bd"/><use transform="matrix(0.05,0,0,0.05,24.95,0)" xlink:href="#aY"/><use transform="matrix(0.05,0,0,0.05,33.95,0)" xlink:href="#aX"/><use transform="matrix(0.05,0,0,0.05,43.95,0)" xlink:href="#bt"/><use transform="matrix(0.05,0,0,0.05,48.95,0)" xlink:href="#bj"/><use transform="matrix(0.05,0,0,0.05,61.900000000000006,0)" xlink:href="#aX"/><use transform="matrix(0.05,0,0,0.05,71.9,0)" xlink:href="#aZ"/><use transform="matrix(0.05,0,0,0.05,81.9,0)" xlink:href="#bd"/><use transform="matrix(0.05,0,0,0.05,87.85000000000001,0)" xlink:href="#aY"/><use transform="matrix(0.05,0,0,0.05,96.85000000000001,0)" xlink:href="#aO"/><use transform="matrix(0.05,0,0,0.05,106.85000000000001,0)" xlink:href="#aM"/><use transform="matrix(0.05,0,0,0.05,111.85000000000001,0)" xlink:href="#aN"/></g><g id="O"><use transform="matrix(0.05,0,0,0.05,0,0)" xlink:href="#aT"/><use transform="matrix(0.05,0,0,0.05,9,0)" xlink:href="#aZ"/><use transform="matrix(0.05,0,0,0.05,19,0)" xlink:href="#bd"/><use transform="matrix(0.05,0,0,0.05,24.95,0)" xlink:href="#aY"/><use transform="matrix(0.05,0,0,0.05,33.95,0)" xlink:href="#aX"/></g><path fill="#333" d="M135-194c53 0 70 44 70 98 0 56-19 98-73 100-31 1-45-17-59-34 3 33 2 69 2 105H25l-1-265h48c2 10 0 23 3 31 11-24 29-35 60-35zM114-30c33 0 39-31 40-66 0-38-9-64-40-64-56 0-55 130 0 130" id="bC"/><g id="P"><use transform="matrix(0.05,0,0,0.05,0,0)" xlink:href="#aC"/><use transform="matrix(0.05,0,0,0.05,12,0)" xlink:href="#aE"/><use transform="matrix(0.05,0,0,0.05,22.950000000000003,0)" xlink:href="#bp"/><use transform="matrix(0.05,0,0,0.05,33.900000000000006,0)" xlink:href="#aI"/><use transform="matrix(0.05,0,0,0.05,43.900000000000006,0)" xlink:href="#bq"/><use transform="matrix(0.05,0,0,0.05,53.900000000000006,0)" xlink:href="#bA"/><use transform="matrix(0.05,0,0,0.05,60.900000000000006,0)" xlink:href="#by"/><use transform="matrix(0.05,0,0,0.05,65.9,0)" xlink:href="#bC"/><use transform="matrix(0.05,0,0,0.05,76.85000000000001,0)" xlink:href="#aD"/><use transform="matrix(0.05,0,0,0.05,82.80000000000001,0)" xlink:href="#by"/><use transform="matrix(0.05,0,0,0.05,87.80000000000001,0)" xlink:href="#aL"/><use transform="matrix(0.05,0,0,0.05,98.75000000000001,0)" xlink:href="#aH"/><use transform="matrix(0.05,0,0,0.05,109.7,0)" xlink:href="#aI"/><use transform="matrix(0.05,0,0,0.05,119.7,0)" xlink:href="#aJ"/><use transform="matrix(0.05,0,0,0.05,124.7,0)" xlink:href="#aK"/><use transform="matrix(0.05,0,0,0.05,129.70000000000002,0)" xlink:href="#aI"/><use transform="matrix(0.05,0,0,0.05,139.70000000000002,0)" xlink:href="#aL"/><use transform="matrix(0.05,0,0,0.05,150.65,0)" xlink:href="#aH"/></g><g id="Q"><use transform="matrix(0.05,0,0,0.05,0,0)" xlink:href="#bc"/><use transform="matrix(0.05,0,0,0.05,12,0)" xlink:href="#aQ"/><use transform="matrix(0.05,0,0,0.05,17,0)" xlink:href="#aZ"/><use transform="matrix(0.05,0,0,0.05,27,0)" xlink:href="#aN"/><use transform="matrix(0.05,0,0,0.05,37,0)" xlink:href="#aO"/><use transform="matrix(0.05,0,0,0.05,47,0)" xlink:href="#aP"/><use transform="matrix(0.05,0,0,0.05,57,0)" xlink:href="#aQ"/><use transform="matrix(0.05,0,0,0.05,62,0)" xlink:href="#aM"/><use transform="matrix(0.05,0,0,0.05,67,0)" xlink:href="#aN"/></g><g id="R"><use transform="matrix(0.05,0,0,0.05,0,0)" xlink:href="#bo"/><use transform="matrix(0.05,0,0,0.05,10,0)" xlink:href="#aU"/><use transform="matrix(0.05,0,0,0.05,20,0)" xlink:href="#be"/><use transform="matrix(0.05,0,0,0.05,30,0)" xlink:href="#aU"/><use transform="matrix(0.05,0,0,0.05,40,0)" xlink:href="#br"/><use transform="matrix(0.05,0,0,0.05,54.95,0)" xlink:href="#aO"/><use transform="matrix(0.05,0,0,0.05,64.95,0)" xlink:href="#aP"/><use transform="matrix(0.05,0,0,0.05,74.95,0)" xlink:href="#aQ"/><use transform="matrix(0.05,0,0,0.05,79.95,0)" xlink:href="#aX"/></g><path fill="#333" d="M30-248c87 1 191-15 191 75 0 78-77 80-158 76V0H30v-248zm33 125c57 0 124 11 124-50 0-59-68-47-124-48v98" id="bD"/><g id="S"><use transform="matrix(0.05,0,0,0.05,0,0)" xlink:href="#bD"/><use transform="matrix(0.05,0,0,0.05,12,0)" xlink:href="#aU"/><use transform="matrix(0.05,0,0,0.05,22,0)" xlink:href="#bk"/><use transform="matrix(0.05,0,0,0.05,31,0)" xlink:href="#br"/><use transform="matrix(0.05,0,0,0.05,45.95,0)" xlink:href="#aO"/><use transform="matrix(0.05,0,0,0.05,55.95,0)" xlink:href="#aP"/><use transform="matrix(0.05,0,0,0.05,65.95,0)" xlink:href="#aQ"/><use transform="matrix(0.05,0,0,0.05,70.95,0)" xlink:href="#bg"/><use transform="matrix(0.05,0,0,0.05,83.9,0)" xlink:href="#aU"/><use transform="matrix(0.05,0,0,0.05,93.9,0)" xlink:href="#aQ"/><use transform="matrix(0.05,0,0,0.05,98.9,0)" xlink:href="#aO"/></g><path fill="#333" d="M127-220V0H93v-220H8v-28h204v28h-85" id="bE"/><g id="T"><use transform="matrix(0.05,0,0,0.05,0,0)" xlink:href="#bE"/><use transform="matrix(0.05,0,0,0.05,10.3,0)" xlink:href="#aR"/><use transform="matrix(0.05,0,0,0.05,14.25,0)" xlink:href="#bo"/><use transform="matrix(0.05,0,0,0.05,24.25,0)" xlink:href="#aX"/></g><path fill="#333" d="M24 0v-261h32V0H24" id="bF"/><g id="U"><use transform="matrix(0.05,0,0,0.05,0,0)" xlink:href="#bo"/><use transform="matrix(0.05,0,0,0.05,10,0)" xlink:href="#bF"/><use transform="matrix(0.05,0,0,0.05,13.949999999999998,0)" xlink:href="#aU"/><use transform="matrix(0.05,0,0,0.05,23.95,0)" xlink:href="#aP"/><use transform="matrix(0.05,0,0,0.05,33.95,0)" xlink:href="#aX"/></g><g id="V"><use transform="matrix(0.05,0,0,0.05,0,0)" xlink:href="#bD"/><use transform="matrix(0.05,0,0,0.05,12,0)" xlink:href="#bF"/><use transform="matrix(0.05,0,0,0.05,15.949999999999998,0)" xlink:href="#aU"/><use transform="matrix(0.05,0,0,0.05,25.950000000000003,0)" xlink:href="#aP"/><use transform="matrix(0.05,0,0,0.05,35.95,0)" xlink:href="#bE"/><use transform="matrix(0.05,0,0,0.05,45.900000000000006,0)" xlink:href="#bk"/><use transform="matrix(0.05,0,0,0.05,54.900000000000006,0)" xlink:href="#bo"/><use transform="matrix(0.05,0,0,0.05,64.9,0)" xlink:href="#aO"/></g><path d="M169-182c-1-43-94-46-97-3 18 66 151 10 154 114 3 95-165 93-204 36-6-8-10-19-12-30l50-8c3 46 112 56 116 5-17-69-150-10-154-114-4-87 153-88 188-35 5 8 8 18 10 28" id="bG"/><path d="M115-3C79 11 28 4 28-45v-112H4v-33h27l15-45h31v45h36v33H77v99c-1 23 16 31 38 25v30" id="bH"/><path d="M85 4C-2 5 27-109 22-190h50c7 57-23 150 33 157 60-5 35-97 40-157h50l1 190h-47c-2-12 1-28-3-38-12 25-28 42-61 42" id="bI"/><path d="M88-194c31-1 46 15 58 34l-1-101h50l1 261h-48c-2-10 0-23-3-31C134-8 116 4 84 4 32 4 16-41 15-95c0-56 19-97 73-99zm17 164c33 0 40-30 41-66 1-37-9-64-41-64s-38 30-39 65c0 43 13 65 39 65" id="bJ"/><path d="M185-48c-13 30-37 53-82 52C43 2 14-33 14-96s30-98 90-98c62 0 83 45 84 108H66c0 31 8 55 39 56 18 0 30-7 34-22zm-45-69c5-46-57-63-70-21-2 6-4 13-4 21h74" id="bK"/><path d="M135-194c87-1 58 113 63 194h-50c-7-57 23-157-34-157-59 0-34 97-39 157H25l-1-190h47c2 12-1 28 3 38 12-26 28-41 61-42" id="bL"/><path d="M-4 44V30h207v14H-4" id="bM"/><path d="M121-226c-27-7-43 5-38 36h38v33H83V0H34v-157H6v-33h28c-9-59 32-81 87-68v32" id="bN"/><path d="M110-194c64 0 96 36 96 99 0 64-35 99-97 99-61 0-95-36-95-99 0-62 34-99 96-99zm-1 164c35 0 45-28 45-65 0-40-10-65-43-65-34 0-45 26-45 65 0 36 10 65 43 65" id="bO"/><path d="M25 0v-261h50V0H25" id="bP"/><path d="M231 0h-52l-39-155L100 0H48L-1-190h46L77-45c9-52 24-97 36-145h53l37 145 32-145h46" id="bQ"/><path d="M137-138c1-29-70-34-71-4 15 46 118 7 119 86 1 83-164 76-172 9l43-7c4 19 20 25 44 25 33 8 57-30 24-41C81-84 22-81 20-136c-2-80 154-74 161-7" id="bR"/><path d="M135-194c52 0 70 43 70 98 0 56-19 99-73 100-30 1-46-15-58-35L72 0H24l1-261h50v104c11-23 29-37 60-37zM114-30c31 0 40-27 40-66 0-37-7-63-39-63s-41 28-41 65c0 36 8 64 40 64" id="bS"/><path d="M25-224v-37h50v37H25zM75 22c2 45-34 59-81 51V38c22 5 31-5 31-27v-201h50V22" id="bT"/><path d="M190-63c-7 42-38 67-86 67-59 0-84-38-90-98-12-110 154-137 174-36l-49 2c-2-19-15-32-35-32-30 0-35 28-38 64-6 74 65 87 74 30" id="bU"/><path d="M24 0v-54h51V0H24" id="bV"/><g id="W"><use transform="matrix(0.05,0,0,0.05,0,0)" xlink:href="#bG"/><use transform="matrix(0.05,0,0,0.05,12,0)" xlink:href="#bH"/><use transform="matrix(0.05,0,0,0.05,17.95,0)" xlink:href="#bI"/><use transform="matrix(0.05,0,0,0.05,28.899999999999995,0)" xlink:href="#bJ"/><use transform="matrix(0.05,0,0,0.05,39.85,0)" xlink:href="#bK"/><use transform="matrix(0.05,0,0,0.05,49.85,0)" xlink:href="#bL"/><use transform="matrix(0.05,0,0,0.05,60.800000000000004,0)" xlink:href="#bH"/><use transform="matrix(0.05,0,0,0.05,66.75,0)" xlink:href="#bM"/><use transform="matrix(0.05,0,0,0.05,76.75,0)" xlink:href="#bN"/><use transform="matrix(0.05,0,0,0.05,82.7,0)" xlink:href="#bO"/><use transform="matrix(0.05,0,0,0.05,93.65,0)" xlink:href="#bP"/><use transform="matrix(0.05,0,0,0.05,98.65,0)" xlink:href="#bP"/><use transform="matrix(0.05,0,0,0.05,103.65,0)" xlink:href="#bO"/><use transform="matrix(0.05,0,0,0.05,114.60000000000001,0)" xlink:href="#bQ"/><use transform="matrix(0.05,0,0,0.05,128.60000000000002,0)" xlink:href="#bM"/><use transform="matrix(0.05,0,0,0.05,138.60000000000002,0)" xlink:href="#bR"/><use transform="matrix(0.05,0,0,0.05,148.60000000000002,0)" xlink:href="#bI"/><use transform="matrix(0.05,0,0,0.05,159.55,0)" xlink:href="#bS"/><use transform="matrix(0.05,0,0,0.05,170.5,0)" xlink:href="#bT"/><use transform="matrix(0.05,0,0,0.05,175.5,0)" xlink:href="#bK"/><use transform="matrix(0.05,0,0,0.05,185.5,0)" xlink:href="#bU"/><use transform="matrix(0.05,0,0,0.05,195.5,0)" xlink:href="#bH"/><use transform="matrix(0.05,0,0,0.05,201.45,0)" xlink:href="#bV"/><use transform="matrix(0.05,0,0,0.05,206.44999999999996,0)" xlink:href="#bT"/><use transform="matrix(0.05,0,0,0.05,211.44999999999996,0)" xlink:href="#bR"/><use transform="matrix(0.05,0,0,0.05,221.44999999999996,0)" xlink:href="#bO"/><use transform="matrix(0.05,0,0,0.05,232.39999999999998,0)" xlink:href="#bL"/></g><path d="M33 0v-248h34V0H33" id="bW"/><path d="M85-194c31 0 48 13 60 33l-1-100h32l1 261h-30c-2-10 0-23-3-31C134-8 116 4 85 4 32 4 16-35 15-94c0-66 23-100 70-100zm9 24c-40 0-46 34-46 75 0 40 6 74 45 74 42 0 51-32 51-76 0-42-9-74-50-73" id="bX"/><path d="M100-194c63 0 86 42 84 106H49c0 40 14 67 53 68 26 1 43-12 49-29l28 8c-11 28-37 45-77 45C44 4 14-33 15-96c1-61 26-98 85-98zm52 81c6-60-76-77-97-28-3 7-6 17-6 28h103" id="bY"/><path d="M117-194c89-4 53 116 60 194h-32v-121c0-31-8-49-39-48C34-167 62-67 57 0H25l-1-190h30c1 10-1 24 2 32 11-22 29-35 61-36" id="bZ"/><path d="M59-47c-2 24 18 29 38 22v24C64 9 27 4 27-40v-127H5v-23h24l9-43h21v43h35v23H59v120" id="ca"/><path d="M24-231v-30h32v30H24zM24 0v-190h32V0H24" id="cb"/><path d="M101-234c-31-9-42 10-38 44h38v23H63V0H32v-167H5v-23h27c-7-52 17-82 69-68v24" id="cc"/><path d="M96-169c-40 0-48 33-48 73s9 75 48 75c24 0 41-14 43-38l32 2c-6 37-31 61-74 61-59 0-76-41-82-99-10-93 101-131 147-64 4 7 5 14 7 22l-32 3c-4-21-16-35-41-35" id="cd"/><path d="M141-36C126-15 110 5 73 4 37 3 15-17 15-53c-1-64 63-63 125-63 3-35-9-54-41-54-24 1-41 7-42 31l-33-3c5-37 33-52 76-52 45 0 72 20 72 64v82c-1 20 7 32 28 27v20c-31 9-61-2-59-35zM48-53c0 20 12 33 32 33 41-3 63-29 60-74-43 2-92-5-92 41" id="ce"/><path d="M96-169c-40 0-48 33-48 73s9 75 48 75c24 0 41-14 43-38l32 2c-6 37-31 61-74 61-59 0-76-41-82-99-10-93 101-131 147-64 4 7 5 14 7 22l-32 3c-4-21-16-35-41-35zm3 187c19-1 33 8 33 26 0 31-30 33-64 32V58c18 2 39 4 41-13 1-15-18-13-34-13L87 0h19" id="cf"/><path d="M141-36C126-15 110 5 73 4 37 3 15-17 15-53c-1-64 63-63 125-63 3-35-9-54-41-54-24 1-41 7-42 31l-33-3c5-37 33-52 76-52 45 0 72 20 72 64v82c-1 20 7 32 28 27v20c-31 9-61-2-59-35zM48-53c0 20 12 33 32 33 41-3 63-29 60-74-43 2-92-5-92 41zm117-205c-3 23-9 48-36 47-26-1-65-44-74 0H39c4-23 8-48 36-47s64 44 74 0h16" id="cg"/><path d="M100-194c62-1 85 37 85 99 1 63-27 99-86 99S16-35 15-95c0-66 28-99 85-99zM99-20c44 1 53-31 53-75 0-43-8-75-51-75s-53 32-53 75 10 74 51 75" id="ch"/><g id="X"><use transform="matrix(0.05,0,0,0.05,0,0)" xlink:href="#bW"/><use transform="matrix(0.05,0,0,0.05,5,0)" xlink:href="#bX"/><use transform="matrix(0.05,0,0,0.05,15,0)" xlink:href="#bY"/><use transform="matrix(0.05,0,0,0.05,25,0)" xlink:href="#bZ"/><use transform="matrix(0.05,0,0,0.05,35,0)" xlink:href="#ca"/><use transform="matrix(0.05,0,0,0.05,40,0)" xlink:href="#cb"/><use transform="matrix(0.05,0,0,0.05,43.95,0)" xlink:href="#cc"/><use transform="matrix(0.05,0,0,0.05,48.95,0)" xlink:href="#cb"/><use transform="matrix(0.05,0,0,0.05,52.900000000000006,0)" xlink:href="#cd"/><use transform="matrix(0.05,0,0,0.05,61.900000000000006,0)" xlink:href="#ce"/><use transform="matrix(0.05,0,0,0.05,71.9,0)" xlink:href="#cf"/><use transform="matrix(0.05,0,0,0.05,80.9,0)" xlink:href="#cg"/><use transform="matrix(0.05,0,0,0.05,90.9,0)" xlink:href="#ch"/></g><g id="Y"><use transform="matrix(0.05,0,0,0.05,0,0)" xlink:href="#bX"/><use transform="matrix(0.05,0,0,0.05,10,0)" xlink:href="#ch"/></g><path d="M135-143c-3-34-86-38-87 0 15 53 115 12 119 90S17 21 10-45l28-5c4 36 97 45 98 0-10-56-113-15-118-90-4-57 82-63 122-42 12 7 21 19 24 35" id="ci"/><path d="M84 4C-5 8 30-112 23-190h32v120c0 31 7 50 39 49 72-2 45-101 50-169h31l1 190h-30c-1-10 1-25-2-33-11 22-28 36-60 37" id="cj"/><g id="Z"><use transform="matrix(0.05,0,0,0.05,0,0)" xlink:href="#bY"/><use transform="matrix(0.05,0,0,0.05,10,0)" xlink:href="#ci"/><use transform="matrix(0.05,0,0,0.05,19,0)" xlink:href="#ca"/><use transform="matrix(0.05,0,0,0.05,24,0)" xlink:href="#cj"/><use transform="matrix(0.05,0,0,0.05,34,0)" xlink:href="#bX"/><use transform="matrix(0.05,0,0,0.05,44,0)" xlink:href="#ce"/><use transform="matrix(0.05,0,0,0.05,54,0)" xlink:href="#bZ"/><use transform="matrix(0.05,0,0,0.05,64,0)" xlink:href="#ca"/><use transform="matrix(0.05,0,0,0.05,69,0)" xlink:href="#bY"/></g><path d="M87 75C49 33 22-17 22-94c0-76 28-126 65-167h31c-38 41-64 92-64 168S80 34 118 75H87" id="ck"/><use transform="matrix(0.05,0,0,0.05,0,0)" xlink:href="#ck" id="aa"/><path d="M185-189c-5-48-123-54-124 2 14 75 158 14 163 119 3 78-121 87-175 55-17-10-28-26-33-46l33-7c5 56 141 63 141-1 0-78-155-14-162-118-5-82 145-84 179-34 5 7 8 16 11 25" id="cl"/><g id="ab"><use transform="matrix(0.05,0,0,0.05,0,0)" xlink:href="#cl"/><use transform="matrix(0.05,0,0,0.05,12,0)" xlink:href="#ca"/><use transform="matrix(0.05,0,0,0.05,17,0)" xlink:href="#cj"/><use transform="matrix(0.05,0,0,0.05,27,0)" xlink:href="#bX"/><use transform="matrix(0.05,0,0,0.05,37,0)" xlink:href="#bY"/><use transform="matrix(0.05,0,0,0.05,47,0)" xlink:href="#bZ"/><use transform="matrix(0.05,0,0,0.05,57,0)" xlink:href="#ca"/><use transform="matrix(0.05,0,0,0.05,62,0)" xlink:href="#bW"/><use transform="matrix(0.05,0,0,0.05,67,0)" xlink:href="#bX"/></g><path d="M16-82v-28h88v28H16" id="cm"/><use transform="matrix(0.05,0,0,0.05,0,0)" xlink:href="#cm" id="ac"/><path d="M114-163C36-179 61-72 57 0H25l-1-190h30c1 12-1 29 2 39 6-27 23-49 58-41v29" id="cn"/><path d="M177-190C167-65 218 103 67 71c-23-6-38-20-44-43l32-5c15 47 100 32 89-28v-30C133-14 115 1 83 1 29 1 15-40 15-95c0-56 16-97 71-98 29-1 48 16 59 35 1-10 0-23 2-32h30zM94-22c36 0 50-32 50-73 0-42-14-75-50-75-39 0-46 34-46 75s6 73 46 73" id="co"/><g id="ad"><use transform="matrix(0.05,0,0,0.05,0,0)" xlink:href="#cl"/><use transform="matrix(0.05,0,0,0.05,12,0)" xlink:href="#ca"/><use transform="matrix(0.05,0,0,0.05,17,0)" xlink:href="#cn"/><use transform="matrix(0.05,0,0,0.05,22.95,0)" xlink:href="#cb"/><use transform="matrix(0.05,0,0,0.05,26.899999999999995,0)" xlink:href="#bZ"/><use transform="matrix(0.05,0,0,0.05,36.9,0)" xlink:href="#co"/></g><path d="M33-261c38 41 65 92 65 168S71 34 33 75H2C39 34 66-17 66-93S39-220 2-261h31" id="cp"/><use transform="matrix(0.05,0,0,0.05,0,0)" xlink:href="#cp" id="ae"/><g id="af"><use transform="matrix(0.05,0,0,0.05,0,0)" xlink:href="#bX"/><use transform="matrix(0.05,0,0,0.05,10,0)" xlink:href="#ce"/></g><path d="M210-169c-67 3-38 105-44 169h-31v-121c0-29-5-50-35-48C34-165 62-65 56 0H25l-1-190h30c1 10-1 24 2 32 10-44 99-50 107 0 11-21 27-35 58-36 85-2 47 119 55 194h-31v-121c0-29-5-49-35-48" id="cq"/><path d="M100-194c63 0 86 42 84 106H49c0 40 14 67 53 68 26 1 43-12 49-29l28 8c-11 28-37 45-77 45C44 4 14-33 15-96c1-61 26-98 85-98zm52 81c6-60-76-77-97-28-3 7-6 17-6 28h103zm-74-98c8-23 27-35 38-54h36v5l-58 49H78" id="cr"/><g id="ag"><use transform="matrix(0.05,0,0,0.05,0,0)" xlink:href="#cq"/><use transform="matrix(0.05,0,0,0.05,14.950000000000001,0)" xlink:href="#ce"/><use transform="matrix(0.05,0,0,0.05,24.950000000000003,0)" xlink:href="#ca"/><use transform="matrix(0.05,0,0,0.05,29.950000000000003,0)" xlink:href="#cr"/><use transform="matrix(0.05,0,0,0.05,39.95,0)" xlink:href="#cn"/><use transform="matrix(0.05,0,0,0.05,45.900000000000006,0)" xlink:href="#cb"/><use transform="matrix(0.05,0,0,0.05,49.85000000000001,0)" xlink:href="#ce"/></g><path d="M115-194c53 0 69 39 70 98 0 66-23 100-70 100C84 3 66-7 56-30L54 0H23l1-261h32v101c10-23 28-34 59-34zm-8 174c40 0 45-34 45-75 0-40-5-75-45-74-42 0-51 32-51 76 0 43 10 73 51 73" id="cs"/><path d="M24-231v-30h32v30H24zM-9 49c24 4 33-6 33-30v-209h32V24c2 40-23 58-65 49V49" id="ct"/><g id="ah"><use transform="matrix(0.05,0,0,0.05,0,0)" xlink:href="#cl"/><use transform="matrix(0.05,0,0,0.05,12,0)" xlink:href="#cj"/><use transform="matrix(0.05,0,0,0.05,22,0)" xlink:href="#cs"/><use transform="matrix(0.05,0,0,0.05,32,0)" xlink:href="#ct"/><use transform="matrix(0.05,0,0,0.05,35.95,0)" xlink:href="#bY"/><use transform="matrix(0.05,0,0,0.05,45.95,0)" xlink:href="#cd"/><use transform="matrix(0.05,0,0,0.05,54.95,0)" xlink:href="#ca"/><use transform="matrix(0.05,0,0,0.05,59.95,0)" xlink:href="#bW"/><use transform="matrix(0.05,0,0,0.05,64.95,0)" xlink:href="#bX"/></g><g id="ai"><use transform="matrix(0.05,0,0,0.05,0,0)" xlink:href="#bW"/><use transform="matrix(0.05,0,0,0.05,5,0)" xlink:href="#bZ"/><use transform="matrix(0.05,0,0,0.05,15,0)" xlink:href="#ca"/><use transform="matrix(0.05,0,0,0.05,20,0)" xlink:href="#bY"/><use transform="matrix(0.05,0,0,0.05,30,0)" xlink:href="#co"/><use transform="matrix(0.05,0,0,0.05,40,0)" xlink:href="#bY"/><use transform="matrix(0.05,0,0,0.05,50,0)" xlink:href="#cn"/></g><use transform="matrix(0.05,0,0,0.05,0,0)" xlink:href="#cp" id="aj"/><path d="M30-248c118-7 216 8 213 122C240-48 200 0 122 0H30v-248zM63-27c89 8 146-16 146-99s-60-101-146-95v194" id="cu"/><g id="ak"><use transform="matrix(0.05,0,0,0.05,0,0)" xlink:href="#cu"/><use transform="matrix(0.05,0,0,0.05,12.950000000000001,0)" xlink:href="#cb"/><use transform="matrix(0.05,0,0,0.05,16.900000000000002,0)" xlink:href="#ce"/></g><path d="M145-31C134-9 116 4 85 4 32 4 16-35 15-94c0-59 17-99 70-100 32-1 48 14 60 33 0-11-1-24 2-32h30l-1 268h-32zM93-21c41 0 51-33 51-76s-8-73-50-73c-40 0-46 35-46 75s5 74 45 74" id="cv"/><g id="al"><use transform="matrix(0.05,0,0,0.05,0,0)" xlink:href="#cv"/><use transform="matrix(0.05,0,0,0.05,10,0)" xlink:href="#cj"/><use transform="matrix(0.05,0,0,0.05,20,0)" xlink:href="#bY"/></g><g id="am"><use transform="matrix(0.05,0,0,0.05,0,0)" xlink:href="#cd"/><use transform="matrix(0.05,0,0,0.05,9,0)" xlink:href="#ch"/><use transform="matrix(0.05,0,0,0.05,19,0)" xlink:href="#cq"/><use transform="matrix(0.05,0,0,0.05,33.95,0)" xlink:href="#bY"/><use transform="matrix(0.05,0,0,0.05,43.95,0)" xlink:href="#cf"/><use transform="matrix(0.05,0,0,0.05,52.95,0)" xlink:href="#ch"/><use transform="matrix(0.05,0,0,0.05,62.95,0)" xlink:href="#cj"/></g><use transform="matrix(0.05,0,0,0.05,0,0)" xlink:href="#ce" id="an"/><path d="M115-194c55 1 70 41 70 98S169 2 115 4C84 4 66-9 55-30l1 105H24l-1-265h31l2 30c10-21 28-34 59-34zm-8 174c40 0 45-34 45-75s-6-73-45-74c-42 0-51 32-51 76 0 43 10 73 51 73" id="cw"/><path d="M106-169C34-169 62-67 57 0H25v-261h32l-1 103c12-21 28-36 61-36 89 0 53 116 60 194h-32v-121c2-32-8-49-39-48" id="cx"/><g id="ao"><use transform="matrix(0.05,0,0,0.05,0,0)" xlink:href="#ce"/><use transform="matrix(0.05,0,0,0.05,10,0)" xlink:href="#cd"/><use transform="matrix(0.05,0,0,0.05,19,0)" xlink:href="#ch"/><use transform="matrix(0.05,0,0,0.05,29,0)" xlink:href="#cq"/><use transform="matrix(0.05,0,0,0.05,43.95,0)" xlink:href="#cw"/><use transform="matrix(0.05,0,0,0.05,53.95,0)" xlink:href="#ce"/><use transform="matrix(0.05,0,0,0.05,63.95,0)" xlink:href="#bZ"/><use transform="matrix(0.05,0,0,0.05,73.95,0)" xlink:href="#cx"/><use transform="matrix(0.05,0,0,0.05,83.95,0)" xlink:href="#ce"/><use transform="matrix(0.05,0,0,0.05,93.95,0)" xlink:href="#cn"/></g><path d="M63-220v92h138v28H63V0H30v-248h175v28H63" id="cy"/><path d="M24 0v-261h32V0H24" id="cz"/><path d="M206 0h-36l-40-164L89 0H53L-1-190h32L70-26l43-164h34l41 164 42-164h31" id="cA"/><g id="ap"><use transform="matrix(0.05,0,0,0.05,0,0)" xlink:href="#cy"/><use transform="matrix(0.05,0,0,0.05,10.950000000000001,0)" xlink:href="#ch"/><use transform="matrix(0.05,0,0,0.05,20.950000000000003,0)" xlink:href="#cz"/><use transform="matrix(0.05,0,0,0.05,24.900000000000002,0)" xlink:href="#cz"/><use transform="matrix(0.05,0,0,0.05,28.85,0)" xlink:href="#ch"/><use transform="matrix(0.05,0,0,0.05,38.85,0)" xlink:href="#cA"/><use transform="matrix(0.05,0,0,0.05,51.800000000000004,0)" xlink:href="#cu"/><use transform="matrix(0.05,0,0,0.05,64.75,0)" xlink:href="#ce"/><use transform="matrix(0.05,0,0,0.05,74.75,0)" xlink:href="#ca"/><use transform="matrix(0.05,0,0,0.05,79.75,0)" xlink:href="#bY"/></g><use transform="matrix(0.05,0,0,0.05,0,0)" xlink:href="#cp" id="aq"/><path d="M25-224v-37h50v37H25zM25 0v-190h50V0H25" id="cB"/><g id="ar"><use transform="matrix(0.05,0,0,0.05,0,0)" xlink:href="#bG"/><use transform="matrix(0.05,0,0,0.05,12,0)" xlink:href="#bK"/><use transform="matrix(0.05,0,0,0.05,22,0)" xlink:href="#bR"/><use transform="matrix(0.05,0,0,0.05,32,0)" xlink:href="#bR"/><use transform="matrix(0.05,0,0,0.05,42,0)" xlink:href="#cB"/><use transform="matrix(0.05,0,0,0.05,47,0)" xlink:href="#bO"/><use transform="matrix(0.05,0,0,0.05,57.95,0)" xlink:href="#bL"/><use transform="matrix(0.05,0,0,0.05,68.9,0)" xlink:href="#bR"/><use transform="matrix(0.05,0,0,0.05,78.9,0)" xlink:href="#bV"/><use transform="matrix(0.05,0,0,0.05,83.9,0)" xlink:href="#bT"/><use transform="matrix(0.05,0,0,0.05,88.9,0)" xlink:href="#bR"/><use transform="matrix(0.05,0,0,0.05,98.9,0)" xlink:href="#bO"/><use transform="matrix(0.05,0,0,0.05,109.85000000000001,0)" xlink:href="#bL"/></g><path d="M197 0v-115H63V0H30v-248h33v105h134v-105h34V0h-34" id="cC"/><g id="as"><use transform="matrix(0.05,0,0,0.05,0,0)" xlink:href="#cC"/><use transform="matrix(0.05,0,0,0.05,12.950000000000001,0)" xlink:href="#ch"/><use transform="matrix(0.05,0,0,0.05,22.950000000000003,0)" xlink:href="#cn"/><use transform="matrix(0.05,0,0,0.05,28.900000000000002,0)" xlink:href="#ce"/></g><path d="M34 0v-190h32V0H34zM24-211c8-23 27-35 38-54h36v5l-58 49H24" id="cD"/><g id="at"><use transform="matrix(0.05,0,0,0.05,0,0)" xlink:href="#cb"/><use transform="matrix(0.05,0,0,0.05,3.95,0)" xlink:href="#bZ"/><use transform="matrix(0.05,0,0,0.05,13.949999999999998,0)" xlink:href="#cD"/><use transform="matrix(0.05,0,0,0.05,18.95,0)" xlink:href="#cd"/><use transform="matrix(0.05,0,0,0.05,27.950000000000003,0)" xlink:href="#cb"/><use transform="matrix(0.05,0,0,0.05,31.899999999999995,0)" xlink:href="#ch"/></g><g id="au"><use transform="matrix(0.05,0,0,0.05,0,0)" xlink:href="#ci"/><use transform="matrix(0.05,0,0,0.05,9,0)" xlink:href="#bY"/><use transform="matrix(0.05,0,0,0.05,19,0)" xlink:href="#ci"/><use transform="matrix(0.05,0,0,0.05,28,0)" xlink:href="#ci"/><use transform="matrix(0.05,0,0,0.05,37,0)" xlink:href="#cg"/><use transform="matrix(0.05,0,0,0.05,47,0)" xlink:href="#ch"/></g><path d="M127-220V0H93v-220H8v-28h204v28h-85" id="cE"/><g id="av"><use transform="matrix(0.05,0,0,0.05,0,0)" xlink:href="#cl"/><use transform="matrix(0.05,0,0,0.05,12,0)" xlink:href="#bY"/><use transform="matrix(0.05,0,0,0.05,22,0)" xlink:href="#ci"/><use transform="matrix(0.05,0,0,0.05,31,0)" xlink:href="#ci"/><use transform="matrix(0.05,0,0,0.05,40,0)" xlink:href="#cb"/><use transform="matrix(0.05,0,0,0.05,43.95,0)" xlink:href="#ch"/><use transform="matrix(0.05,0,0,0.05,53.95,0)" xlink:href="#bZ"/><use transform="matrix(0.05,0,0,0.05,63.95,0)" xlink:href="#cl"/><use transform="matrix(0.05,0,0,0.05,75.95,0)" xlink:href="#ca"/><use transform="matrix(0.05,0,0,0.05,80.95,0)" xlink:href="#ce"/><use transform="matrix(0.05,0,0,0.05,90.95,0)" xlink:href="#cn"/><use transform="matrix(0.05,0,0,0.05,96.9,0)" xlink:href="#ca"/><use transform="matrix(0.05,0,0,0.05,101.9,0)" xlink:href="#cE"/><use transform="matrix(0.05,0,0,0.05,112.2,0)" xlink:href="#cb"/><use transform="matrix(0.05,0,0,0.05,116.15,0)" xlink:href="#cq"/><use transform="matrix(0.05,0,0,0.05,131.1,0)" xlink:href="#bY"/></g><path d="M160-131c35 5 61 23 61 61C221 17 115-2 30 0v-248c76 3 177-17 177 60 0 33-19 50-47 57zm-97-11c50-1 110 9 110-42 0-47-63-36-110-37v79zm0 115c55-2 124 14 124-45 0-56-70-42-124-44v89" id="cF"/><g id="aw"><use transform="matrix(0.05,0,0,0.05,0,0)" xlink:href="#cF"/><use transform="matrix(0.05,0,0,0.05,12,0)" xlink:href="#cn"/><use transform="matrix(0.05,0,0,0.05,17.95,0)" xlink:href="#ch"/><use transform="matrix(0.05,0,0,0.05,27.950000000000003,0)" xlink:href="#cA"/><use transform="matrix(0.05,0,0,0.05,40.9,0)" xlink:href="#ci"/><use transform="matrix(0.05,0,0,0.05,49.9,0)" xlink:href="#bY"/><use transform="matrix(0.05,0,0,0.05,59.900000000000006,0)" xlink:href="#cn"/></g><use transform="matrix(0.05,0,0,0.05,0,0)" xlink:href="#ch" id="ax"/><path d="M141-36C126-15 110 5 73 4 37 3 15-17 15-53c-1-64 63-63 125-63 3-35-9-54-41-54-24 1-41 7-42 31l-33-3c5-37 33-52 76-52 45 0 72 20 72 64v82c-1 20 7 32 28 27v20c-31 9-61-2-59-35zM48-53c0 20 12 33 32 33 41-3 63-29 60-74-43 2-92-5-92 41zm25-158c8-23 27-35 38-54h36v5l-58 49H73" id="cG"/><g id="ay"><use transform="matrix(0.05,0,0,0.05,0,0)" xlink:href="#bY"/><use transform="matrix(0.05,0,0,0.05,10,0)" xlink:href="#ci"/><use transform="matrix(0.05,0,0,0.05,19,0)" xlink:href="#ca"/><use transform="matrix(0.05,0,0,0.05,24,0)" xlink:href="#cG"/></g><g id="az"><use transform="matrix(0.05,0,0,0.05,0,0)" xlink:href="#cj"/><use transform="matrix(0.05,0,0,0.05,10,0)" xlink:href="#ci"/><use transform="matrix(0.05,0,0,0.05,19,0)" xlink:href="#ce"/><use transform="matrix(0.05,0,0,0.05,29,0)" xlink:href="#bZ"/><use transform="matrix(0.05,0,0,0.05,39,0)" xlink:href="#bX"/><use transform="matrix(0.05,0,0,0.05,49,0)" xlink:href="#ch"/></g><path d="M212-179c-10-28-35-45-73-45-59 0-87 40-87 99 0 60 29 101 89 101 43 0 62-24 78-52l27 14C228-24 195 4 139 4 59 4 22-46 18-125c-6-104 99-153 187-111 19 9 31 26 39 46" id="cH"/><g id="aA"><use transform="matrix(0.05,0,0,0.05,0,0)" xlink:href="#cl"/><use transform="matrix(0.05,0,0,0.05,12,0)" xlink:href="#ca"/><use transform="matrix(0.05,0,0,0.05,17,0)" xlink:href="#cj"/><use transform="matrix(0.05,0,0,0.05,27,0)" xlink:href="#bX"/><use transform="matrix(0.05,0,0,0.05,37,0)" xlink:href="#bY"/><use transform="matrix(0.05,0,0,0.05,47,0)" xlink:href="#bZ"/><use transform="matrix(0.05,0,0,0.05,57,0)" xlink:href="#ca"/><use transform="matrix(0.05,0,0,0.05,62,0)" xlink:href="#cH"/><use transform="matrix(0.05,0,0,0.05,74.95,0)" xlink:href="#cz"/><use transform="matrix(0.05,0,0,0.05,78.9,0)" xlink:href="#cb"/><use transform="matrix(0.05,0,0,0.05,82.85000000000001,0)" xlink:href="#bY"/><use transform="matrix(0.05,0,0,0.05,92.85000000000001,0)" xlink:href="#bZ"/><use transform="matrix(0.05,0,0,0.05,102.85000000000001,0)" xlink:href="#ca"/></g><use transform="matrix(0.05,0,0,0.05,0,0)" xlink:href="#cp" id="aB"/></defs></g></svg>